<?xml version="1.0" encoding="UTF-8"?>
<svg version="1.1" xmlns="http://www.w3.org/2000/svg" width="407" height="410">
<path d="M0 0 C7.55015488 5.35133785 13.11457467 11.92483538 15.4921875 20.95703125 C20.07494446 48.41832106 6.75894963 78.38039231 -8.68359375 100.38671875 C-12.02688596 105.00016813 -15.48079709 109.51994269 -19 114 C-19.75410156 115.0003125 -20.50820313 116.000625 -21.28515625 117.03125 C-21.85105469 117.6809375 -22.41695312 118.330625 -23 119 C-23.66 119 -24.32 119 -25 119 C-25.33 119.99 -25.66 120.98 -26 122 C-26.66 122 -27.32 122 -28 122 C-28.268125 122.639375 -28.53625 123.27875 -28.8125 123.9375 C-30 126 -30 126 -33 127 C-33.33 127.99 -33.66 128.98 -34 130 C-39.46511628 135 -39.46511628 135 -42 135 C-42 135.66 -42 136.32 -42 137 C-53.62292325 146.89134489 -67.42321594 154.68498104 -81.18798828 161.14501953 C-82.75931982 161.88643735 -84.31663543 162.65742204 -85.87109375 163.43359375 C-95.99475337 168.15013183 -107.09650772 169.94621104 -118 172 C-118.90041016 172.17869629 -119.80082031 172.35739258 -120.72851562 172.54150391 C-141.34667904 176.53273339 -163.71437877 175.56109705 -184 170 C-185.084021 169.70633545 -185.084021 169.70633545 -186.18994141 169.40673828 C-203.99734674 164.48253954 -219.86429852 157.06409006 -234 145 C-234 144.34 -234 143.68 -234 143 C-234.66 143 -235.32 143 -236 143 C-240 138.52941176 -240 138.52941176 -240 136 C-239.28714844 135.95101562 -238.57429688 135.90203125 -237.83984375 135.8515625 C-228.10620701 135.09173621 -217.21160621 133.21160621 -210 126 C-208.87863068 125.05816025 -207.75322397 124.12111765 -206.625 123.1875 C-202.12276291 119.33111397 -198.94720493 115.67934772 -197 110 C-196.34 110 -195.68 110 -195 110 C-195 108.68 -195 107.36 -195 106 C-194.34 106 -193.68 106 -193 106 C-193.04125 105.29875 -193.0825 104.5975 -193.125 103.875 C-192.98170001 100.57910027 -192.24636119 98.0466607 -191 95 C-190.34 94.67 -189.68 94.34 -189 94 C-189.185625 93.401875 -189.37125 92.80375 -189.5625 92.1875 C-190 90 -190 90 -189 87 C-187.30577029 86.01445418 -185.60732853 85.03484477 -183.88085938 84.10693359 C-180.96851856 82.39294693 -178.68378448 80.14207548 -176.25 77.8125 C-169.96242069 71.8907543 -163.3542238 66.44680075 -156.58203125 61.0859375 C-151.4900704 57.04891797 -146.49880248 52.912538 -141.5625 48.6875 C-140.65697388 47.91345825 -140.65697388 47.91345825 -139.7331543 47.1237793 C-136.48038584 44.34083815 -136.48038584 44.34083815 -133.43725586 41.33520508 C-132 40 -132 40 -130 40 C-130 39.34 -130 38.68 -130 38 C-128.49609375 36.51953125 -128.49609375 36.51953125 -126.4375 34.8125 C-122.89003826 31.81322507 -119.63477128 28.66004868 -116.4453125 25.28515625 C-115 24 -115 24 -113 24 C-113 23.34 -113 22.68 -113 22 C-111.390625 20.4140625 -111.390625 20.4140625 -109.25 18.625 C-106.9016586 16.65222813 -104.83737031 14.8141375 -102.8125 12.5 C-101 11 -101 11 -98.625 11 C-95.39841611 12.22917482 -92.84798368 14.06094728 -90 16 C-73.24532212 21.38543218 -55.53126653 10.54099546 -40.97265625 3.3671875 C-27.53616612 -3.1559989 -13.99710629 -7.90534243 0 0 Z M-52 35 C-57.27672904 41.841124 -59.91350633 47.29482204 -59 56 C-57.13505941 64.16541555 -52.8855925 69.35416545 -46 74 C-40.76844698 76.83638417 -36.15811936 77.63712382 -30.40234375 75.98828125 C-22.56927572 72.76589717 -16.36762089 68.90658817 -13 61 C-12.38125 59.7934375 -12.38125 59.7934375 -11.75 58.5625 C-9.81566332 51.95351633 -10.86546119 45.99758214 -14 40 C-15.53191546 37.73584821 -17.07457263 35.9747973 -19 34 C-19.66 34 -20.32 34 -21 34 C-21 33.34 -21 32.68 -21 32 C-22.55780332 31.32243118 -24.12150096 30.65840543 -25.6875 30 C-26.55761719 29.62875 -27.42773438 29.2575 -28.32421875 28.875 C-36.26653158 26.27780573 -45.87827652 29.713057 -52 35 Z M-101 99 C-104.41734759 105.26323237 -105.21824384 112.44882491 -103.37890625 119.3203125 C-101.07075607 125.37279521 -97.3017774 129.34210019 -92 133 C-85.84745816 135.05084728 -79.7281669 134.48918267 -73.78515625 131.984375 C-70.97947572 130.43726013 -69.06610813 128.42029809 -67 126 C-66.443125 125.360625 -65.88625 124.72125 -65.3125 124.0625 C-61.74389963 118.45469941 -61.18833967 112.48326215 -62 106 C-64.23496805 99.0534777 -68.55026214 94.17919003 -74.9375 90.6875 C-84.76414656 86.16907934 -94.43911664 91.21743492 -101 99 Z M-172.875 112.875 C-177.0504434 118.09430425 -179.08246758 123.21409666 -179 130 C-177.9141216 136.41744349 -176.14836508 140.80947028 -171 145 C-170.48824219 145.45246094 -169.97648437 145.90492188 -169.44921875 146.37109375 C-164.55803881 150.65542754 -160.94047836 151.37050547 -154.625 151.26953125 C-148.37627286 150.62792087 -144.32331076 147.64359426 -140.125 143.125 C-135.70701697 137.65032399 -134.45038904 132.62892226 -134.62890625 125.65625 C-135.58170554 118.83621295 -138.74603187 113.59046019 -144.1875 109.4375 C-153.46462618 103.17588329 -165.32599794 104.64254919 -172.875 112.875 Z " fill="#FAD76D" transform="translate(343,185)"/>
<path d="M0 0 C4.34608343 4.54822684 6.83316551 9.65741269 7.1875 16 C6.72816259 25.40001205 2.88203383 34.71587666 -0.48046875 43.41015625 C-3.25632266 51.4249457 -3.32887509 59.89451538 -0.3125 67.8125 C-0.1875 70.6875 -0.1875 70.6875 -0.3125 72.8125 C-1.3025 73.1425 -2.2925 73.4725 -3.3125 73.8125 C-3.6425 74.8025 -3.9725 75.7925 -4.3125 76.8125 C-4.9725 76.8125 -5.6325 76.8125 -6.3125 76.8125 C-6.3125 77.4725 -6.3125 78.1325 -6.3125 78.8125 C-7.80106066 80.14514423 -9.35553645 81.40469479 -10.9375 82.625 C-13.9500845 84.96764716 -16.93075126 87.31068331 -19.8125 89.8125 C-22.3125 91.8125 -22.3125 91.8125 -24.3125 91.8125 C-24.6425 92.8025 -24.9725 93.7925 -25.3125 94.8125 C-30.77761628 99.8125 -30.77761628 99.8125 -33.3125 99.8125 C-33.3125 100.4725 -33.3125 101.1325 -33.3125 101.8125 C-34.89453125 103.1875 -34.89453125 103.1875 -37.125 104.8125 C-43.60916056 109.71665941 -50.34877577 114.95678109 -55.32421875 121.4296875 C-57.46183924 123.99147237 -59.44399344 125.15810552 -62.3125 126.8125 C-63.79307209 128.18408922 -65.23011058 129.60385878 -66.625 131.0625 C-71.6168873 136.17047771 -76.86286199 140.85278959 -82.4375 145.3125 C-85.23566411 147.74568618 -87.45804117 150.27189922 -89.80078125 153.125 C-91.2656111 154.76015891 -92.74887125 155.99807249 -94.5 157.3125 C-97.90748512 160.34137566 -98.81568155 162.57151438 -100.3125 166.8125 C-101.6325 166.8125 -102.9525 166.8125 -104.3125 166.8125 C-104.3125 165.8225 -104.3125 164.8325 -104.3125 163.8125 C-104.993125 163.998125 -105.67375 164.18375 -106.375 164.375 C-109.3125 164.8125 -109.3125 164.8125 -112.5625 164.1875 C-116.81487006 163.76226299 -119.23957391 164.56967237 -123.16015625 166.05078125 C-125.3125 166.8125 -125.3125 166.8125 -128.8125 167.375 C-129.6375 167.519375 -130.4625 167.66375 -131.3125 167.8125 C-131.6425 168.4725 -131.9725 169.1325 -132.3125 169.8125 C-132.951875 169.956875 -133.59125 170.10125 -134.25 170.25 C-136.69460855 170.67415035 -136.69460855 170.67415035 -138.3125 173.8125 C-138.9725 173.8125 -139.6325 173.8125 -140.3125 173.8125 C-140.3125 174.4725 -140.3125 175.1325 -140.3125 175.8125 C-141.3125 176.8125 -142.3125 177.8125 -143.3125 178.8125 C-144.48824711 180.91239652 -144.48824711 180.91239652 -145.3125 182.8125 C-145.9725 182.8125 -146.6325 182.8125 -147.3125 182.8125 C-147.4053125 184.17375 -147.4053125 184.17375 -147.5 185.5625 C-148.38092403 191.9656344 -151.44284077 198.07318154 -154.3125 203.8125 C-155.3025 203.4825 -156.2925 203.1525 -157.3125 202.8125 C-158.33321569 200.06535125 -159.14157262 197.44996793 -159.875 194.625 C-160.18727539 193.51995117 -160.18727539 193.51995117 -160.50585938 192.39257812 C-164.0500329 179.24913839 -164.68921469 166.14579859 -164.625 152.625 C-164.62284485 151.80890259 -164.6206897 150.99280518 -164.61846924 150.15197754 C-164.49793886 121.71934939 -157.78111248 96.92093302 -142.4375 72.75 C-142.0561792 72.14776611 -141.6748584 71.54553223 -141.28198242 70.92504883 C-140.35107534 69.51352515 -139.3388979 68.15618688 -138.3125 66.8125 C-137.6525 66.8125 -136.9925 66.8125 -136.3125 66.8125 C-136.065 66.10738281 -135.8175 65.40226562 -135.5625 64.67578125 C-134.15146341 61.44362557 -132.3874274 58.84921098 -130.3125 56 C-129.61125 55.02417969 -128.91 54.04835937 -128.1875 53.04296875 C-127.56875 52.30691406 -126.95 51.57085937 -126.3125 50.8125 C-125.6525 50.8125 -124.9925 50.8125 -124.3125 50.8125 C-124.04695313 50.22243164 -123.78140625 49.63236328 -123.5078125 49.02441406 C-122.2794103 46.75126784 -121.00505604 45.24682808 -119.1875 43.421875 C-118.56858887 42.79877441 -117.94967773 42.17567383 -117.31201172 41.53369141 C-116.65217285 40.88319824 -115.99233398 40.23270508 -115.3125 39.5625 C-114.6333252 38.89009277 -113.95415039 38.21768555 -113.25439453 37.52490234 C-108.20199673 32.57554135 -103.04037514 27.97415928 -97.3125 23.8125 C-95.8584375 22.74322266 -95.8584375 22.74322266 -94.375 21.65234375 C-69.58253587 3.93910038 -29.23673654 -19.30727885 0 0 Z M-79.3125 42.8125 C-83.04128106 49.05506605 -84.4465707 55.61859697 -83.3125 62.8125 C-81.10941148 70.21110742 -77.3654936 74.55328474 -71.1875 79.125 C-65.86706311 81.96488462 -59.78563911 81.78231197 -54.07421875 80.1875 C-47.8487795 77.47973613 -43.26628418 72.59921573 -40.17578125 66.609375 C-37.68421772 60.16062233 -37.87872722 54.63399001 -40.29296875 48.19921875 C-43.53008502 41.12784825 -46.86203153 37.59934974 -53.8125 34 C-63.82115063 30.60420782 -72.71940209 35.05248211 -79.3125 42.8125 Z M-132.3125 96.8125 C-136.95812553 102.91817927 -138.87868796 108.5285296 -138.68359375 116.16015625 C-137.57626521 124.0746413 -133.18288516 129.57142277 -127.1796875 134.53515625 C-122.68661301 137.60887039 -117.53930703 137.37860818 -112.3125 136.8125 C-109.3820675 135.83399918 -106.90660918 134.47598705 -104.3125 132.8125 C-103.425625 132.27625 -102.53875 131.74 -101.625 131.1875 C-96.51557787 125.93998538 -94.01174046 120.06938513 -93.75 112.75 C-94.09773484 105.96917066 -95.50353071 100.74506394 -100.265625 95.7734375 C-110.40855247 87.15549563 -122.56635982 86.77102224 -132.3125 96.8125 Z " fill="#F9D66D" transform="translate(226.3125,82.1875)"/>
<path d="M0 0 C2.375 0.8125 2.375 0.8125 4.375 2.8125 C4.375 10.33339253 -3.74797659 17.28686477 -8.625 22.4375 C-9.23093994 23.08066162 -9.83687988 23.72382324 -10.46118164 24.38647461 C-17.86858757 32.17231658 -25.47277688 39.76765935 -33.0625 47.375 C-33.71984131 48.03502014 -34.37718262 48.69504028 -35.05444336 49.37506104 C-47.48401065 61.8429625 -47.48401065 61.8429625 -53.81567383 67.22143555 C-57.47354873 70.43805554 -60.8381535 73.96428935 -64.25 77.4375 C-68.87811526 82.14796607 -73.49277442 86.6549404 -78.625 90.8125 C-79.45 91.6375 -80.275 92.4625 -81.125 93.3125 C-82.99919662 95.18669662 -84.82788396 96.83793674 -86.875 98.5 C-89.64242194 100.5167322 -89.64242194 100.5167322 -90.625 102.8125 C-91.470625 103.3075 -92.31625 103.8025 -93.1875 104.3125 C-93.991875 104.8075 -94.79625 105.3025 -95.625 105.8125 C-95.625 106.4725 -95.625 107.1325 -95.625 107.8125 C-96.718125 108.451875 -97.81125 109.09125 -98.9375 109.75 C-103.66686708 112.54193406 -107.20312543 116.19052286 -110.94262695 120.15405273 C-112.13686416 121.40608597 -113.37761205 122.61341158 -114.625 123.8125 C-115.285 123.8125 -115.945 123.8125 -116.625 123.8125 C-116.295 124.8025 -115.965 125.7925 -115.625 126.8125 C-116.31078125 127.0084375 -116.9965625 127.204375 -117.703125 127.40625 C-121.70813177 129.33379337 -124.31308559 132.14049429 -127.375 135.3125 C-127.96410156 135.90675781 -128.55320313 136.50101563 -129.16015625 137.11328125 C-132.27296505 140.18246437 -132.27296505 140.18246437 -134.625 143.8125 C-136.26833504 144.85039581 -137.93743867 145.84817924 -139.625 146.8125 C-141.11 147.8025 -141.11 147.8025 -142.625 148.8125 C-144.91588373 147.23258019 -146.55938033 145.90436754 -148.1875 143.625 C-148.661875 143.026875 -149.13625 142.42875 -149.625 141.8125 C-150.615 141.8125 -151.605 141.8125 -152.625 141.8125 C-154.30736471 141.18650383 -155.9773962 140.52497732 -157.625 139.8125 C-158.285 140.8025 -158.945 141.7925 -159.625 142.8125 C-160.285 142.4825 -160.945 142.1525 -161.625 141.8125 C-161.0990625 140.636875 -161.0990625 140.636875 -160.5625 139.4375 C-160.253125 138.57125 -159.94375 137.705 -159.625 136.8125 C-159.955 136.1525 -160.285 135.4925 -160.625 134.8125 C-158.975 134.8125 -157.325 134.8125 -155.625 134.8125 C-156.285 133.8225 -156.945 132.8325 -157.625 131.8125 C-149.45785055 121.71493341 -139.4294597 113.2715793 -129.625 104.8125 C-128.48010557 103.81421845 -127.3356144 102.81547432 -126.19140625 101.81640625 C-120.525395 96.87714145 -114.85960307 91.95998841 -109 87.25 C-104.93816994 83.96813731 -101.11217315 80.51292828 -97.3125 76.9375 C-91.87715407 71.83959813 -86.19174741 67.20741895 -80.29296875 62.66015625 C-76.34543087 59.6149737 -72.48430456 56.46829999 -68.625 53.3125 C-63.6057771 49.21304577 -58.55081555 45.16889295 -53.4375 41.1875 C-46.67512181 35.91103409 -40.13704952 30.3931243 -33.625 24.8125 C-24.79741738 17.24753571 -15.82900684 9.91650528 -6.625 2.8125 C-5.88636719 2.21050781 -5.14773438 1.60851562 -4.38671875 0.98828125 C-2.625 -0.1875 -2.625 -0.1875 0 0 Z " fill="#F9D66F" transform="translate(328.625,86.1875)"/>
<path d="M0 0 C2.38182795 2.52885437 4.70001695 5.10286138 7.01171875 7.6953125 C9.67305375 10.75905074 9.67305375 10.75905074 13 13 C13 13.66 13 14.32 13 15 C13.66 15 14.32 15 15 15 C17 18 17 18 16.8125 20.8125 C15.95079209 24.19304643 14.55605425 26.8878915 13 30 C12.87625 31.010625 12.7525 32.02125 12.625 33.0625 C11.80070847 36.93667019 9.89322285 38.39609943 7 41 C6.505 41.99 6.505 41.99 6 43 C3.49867942 44.41417418 1.00914712 45.72686169 -1.5625 47 C-2.59987305 47.53367187 -2.59987305 47.53367187 -3.65820312 48.078125 C-16.47363817 54.47987074 -27.26546983 53.57908457 -40.9375 50.0625 C-42.05962891 49.78470703 -43.18175781 49.50691406 -44.33789062 49.22070312 C-52.26646205 47.24451265 -52.26646205 47.24451265 -56 46 C-54.43865142 41.78435883 -51.38128204 39.80574467 -48 37 C-47.67 36.01 -47.34 35.02 -47 34 C-46.54625 33.566875 -46.0925 33.13375 -45.625 32.6875 C-43.42672375 30.40467466 -42.3672251 27.84838562 -41 25 C-40.484375 24.195625 -39.96875 23.39125 -39.4375 22.5625 C-37.70622427 19.47631284 -36.92884619 16.40576936 -36 13 C-34.52619452 9.14543182 -32.04570118 6.74855961 -29 4 C-26.66682784 3.22227595 -24.38564077 2.57584432 -22 2 C-22 1.34 -22 0.68 -22 0 C-18.70880065 -0.1964031 -15.41703066 -0.38060745 -12.125 -0.5625 C-11.18785156 -0.61857422 -10.25070313 -0.67464844 -9.28515625 -0.73242188 C-8.38925781 -0.78076172 -7.49335937 -0.82910156 -6.5703125 -0.87890625 C-5.74289551 -0.9260376 -4.91547852 -0.97316895 -4.06298828 -1.02172852 C-2 -1 -2 -1 0 0 Z " fill="#F9D66D" transform="translate(126,257)"/>
<path d="M0 0 C0.33 0.99 0.66 1.98 1 3 C1.66 3.66 2.32 4.32 3 5 C3.495 5.53625 3.99 6.0725 4.5 6.625 C5.90657595 8.22524154 5.90657595 8.22524154 8 8 C7.8002314 14.7747611 5.22899749 17.67156807 0.4375 22.25 C-0.15869141 22.86101562 -0.75488281 23.47203125 -1.36914062 24.1015625 C-5.60943344 28.26459382 -9.27933158 30.35778919 -15 32 C-18.50698662 31.77128348 -19.50840482 31.49159518 -22 29 C-21.625 26.875 -21.625 26.875 -21 25 C-20.34 25 -19.68 25 -19 25 C-19.185625 24.05125 -19.37125 23.1025 -19.5625 22.125 C-20 19 -20 19 -19 17 C-19.66 17 -20.32 17 -21 17 C-18 11 -18 11 -15.875 9.8125 C-12.59634333 7.7455208 -10.2103228 5.31860977 -7.55078125 2.5234375 C-4.87352976 -0.10660804 -3.95125974 0 0 0 Z " fill="#F0CF6C" transform="translate(156,235)"/>
<path d="M0 0 C0.12375 0.639375 0.2475 1.27875 0.375 1.9375 C0.58125 2.618125 0.7875 3.29875 1 4 C1.66 4.33 2.32 4.66 3 5 C-0.03559236 10.47658415 -3.13563091 12.64109243 -8.75 15.25 C-9.42804688 15.58773438 -10.10609375 15.92546875 -10.8046875 16.2734375 C-17.13349949 19.32955584 -23.38248449 21.32270876 -30.5 21.125 C-31.3559375 21.10695313 -32.211875 21.08890625 -33.09375 21.0703125 C-33.7228125 21.04710937 -34.351875 21.02390625 -35 21 C-35 20.01 -35 19.02 -35 18 C-34.1028125 17.89945312 -33.205625 17.79890625 -32.28125 17.6953125 C-21.17183541 16.01971898 -12.96792802 11.72318155 -4 5 C-3.34 4.01 -2.68 3.02 -2 2 C-1.34 2 -0.68 2 0 2 C0 1.34 0 0.68 0 0 Z " fill="#DADADA" transform="translate(133,289)"/>
<path d="M0 0 C5.63388709 2.38356761 10.76687203 6.82699526 14 12 C13.75 14.8125 13.75 14.8125 13 17 C12.34 17 11.68 17 11 17 C10.67 17.66 10.34 18.32 10 19 C8.0625 18.25 8.0625 18.25 6 17 C5.375 14.9375 5.375 14.9375 5 13 C4.34 12.67 3.68 12.34 3 12 C3 11.34 3 10.68 3 10 C1.68 9.67 0.36 9.34 -1 9 C-1.625 6.1875 -1.625 6.1875 -2 3 C-1.34 2.01 -0.68 1.02 0 0 Z " fill="#DABD65" transform="translate(160,226)"/>
<path d="M0 0 C0.66 0.33 1.32 0.66 2 1 C0.68203274 3.91303543 -0.73974705 5.99178524 -2.9934082 8.25219727 C-3.59776199 8.86285538 -4.20211578 9.47351349 -4.82478333 10.10267639 C-5.47686264 10.75070724 -6.12894196 11.3987381 -6.80078125 12.06640625 C-7.47417038 12.74170883 -8.14755951 13.41701141 -8.84135437 14.11277771 C-10.2653938 15.53817662 -11.69195601 16.961059 -13.12084961 18.3815918 C-15.30098706 20.55104349 -17.47028385 22.73092124 -19.63867188 24.91210938 C-21.02540102 26.29751656 -22.41275063 27.68230301 -23.80078125 29.06640625 C-24.44678787 29.71646133 -25.09279449 30.36651642 -25.75837708 31.03627014 C-28.93127936 34.17658419 -31.89260911 37.10374916 -36 39 C-36.66 38.67 -37.32 38.34 -38 38 C-38 37.34 -38 36.68 -38 36 C-36.50890766 34.67018907 -34.95293286 33.4130127 -33.375 32.1875 C-27.84085649 27.78321414 -22.69281436 23.06973601 -17.59716797 18.16674805 C-13.21013763 14 -13.21013763 14 -11 14 C-10.76539063 13.44828125 -10.53078125 12.8965625 -10.2890625 12.328125 C-8.67151842 9.40674236 -6.63549805 7.20425503 -4.375 4.75 C-3.55773437 3.85796875 -2.74046875 2.9659375 -1.8984375 2.046875 C-1.27195312 1.37140625 -0.64546875 0.6959375 0 0 Z " fill="#BFBFBF" transform="translate(312,112)"/>
<path d="M0 0 C3.9252025 3.70090521 6.94580156 7.54959656 10 12 C7.03297233 13.6483487 4.40611234 14.74454157 1 15 C-1.3125 13.5625 -1.3125 13.5625 -3 12 C-2.67 10.68 -2.34 9.36 -2 8 C-1.34 8 -0.68 8 0 8 C-0.185625 7.05125 -0.37125 6.1025 -0.5625 5.125 C-1 2 -1 2 0 0 Z " fill="#141416" transform="translate(137,252)"/>
<path d="M0 0 C0 3 0 3 -2.01953125 5.36010742 C-3.40205078 6.71906128 -3.40205078 6.71906128 -4.8125 8.10546875 C-5.30081299 8.5895369 -5.78912598 9.07360504 -6.29223633 9.57234192 C-7.85459826 11.1179014 -9.42706327 12.65271107 -11 14.1875 C-12.06057762 15.23303282 -13.12048229 16.27924873 -14.1796875 17.32617188 C-16.77869434 19.89208902 -19.3868639 22.44846467 -22 25 C-22.66 24.67 -23.32 24.34 -24 24 C-22.625 22 -22.625 22 -21 20 C-20.34 20 -19.68 20 -19 20 C-18.74025391 19.41500732 -18.48050781 18.83001465 -18.21289062 18.22729492 C-16.91575722 15.84530055 -15.5143238 14.27081602 -13.59375 12.36328125 C-12.93246094 11.70392578 -12.27117187 11.04457031 -11.58984375 10.36523438 C-10.90019531 9.68783203 -10.21054688 9.01042969 -9.5 8.3125 C-8.81035156 7.62349609 -8.12070313 6.93449219 -7.41015625 6.22460938 C-2.28111049 1.14055525 -2.28111049 1.14055525 0 0 Z " fill="#C2AA63" transform="translate(121,113)"/>
<path d="M0 0 C0.66 1.32 1.32 2.64 2 4 C-1.80411834 7.91939465 -5.81576108 11.49102731 -10 15 C-10 14.34 -10 13.68 -10 13 C-10.99 12.67 -11.98 12.34 -13 12 C-8.71 8.04 -4.42 4.08 0 0 Z " fill="#D8D8D8" transform="translate(228,190)"/>
<path d="M0 0 C0.66 0 1.32 0 2 0 C1.1467896 5.10803592 -2.24595509 7.70628195 -6 11 C-8.8125 13 -8.8125 13 -11 14 C-11.66 13.67 -12.32 13.34 -13 13 C-13 12.34 -13 11.68 -13 11 C-11.25998065 9.44038399 -9.45696803 7.95050425 -7.625 6.5 C-3.68517459 3.39240862 -3.68517459 3.39240862 0 0 Z " fill="#C5C5C5" transform="translate(287,137)"/>
<path d="M0 0 C2.6875 -0.375 2.6875 -0.375 6 0 C8.06398076 1.823983 9.39041053 3.72763839 11 6 C10.34 6.66 9.68 7.32 9 8 C7.02 7.01 5.04 6.02 3 5 C2.01 6.485 2.01 6.485 1 8 C0.34 7.67 -0.32 7.34 -1 7 C-0.649375 6.21625 -0.29875 5.4325 0.0625 4.625 C0.371875 3.75875 0.68125 2.8925 1 2 C0.67 1.34 0.34 0.68 0 0 Z " fill="#161618" transform="translate(168,221)"/>
<path d="M0 0 C0 0.66 0 1.32 0 2 C0.66 2.66 1.32 3.32 2 4 C-2.96073422 5.32286246 -7.91111512 5.08893197 -13 5 C-13 4.01 -13 3.02 -13 2 C-11.20873548 1.66451233 -9.41697413 1.33167645 -7.625 1 C-6.62726563 0.814375 -5.62953125 0.62875 -4.6015625 0.4375 C-2 0 -2 0 0 0 Z " fill="#CDCDCC" transform="translate(111,305)"/>
<path d="M0 0 C0.99 0.33 1.98 0.66 3 1 C-1.29 5.29 -5.58 9.58 -10 14 C-10.33 13.34 -10.66 12.68 -11 12 C-8.85841164 7.00296049 -4.52002373 2.93437024 0 0 Z " fill="#929293" transform="translate(160,249)"/>
<path d="M0 0 C0.99 0.33 1.98 0.66 3 1 C2.34 3.64 1.68 6.28 1 9 C-0.32 9 -1.64 9 -3 9 C-3.1875 5.625 -3.1875 5.625 -3 2 C-2.01 1.34 -1.02 0.68 0 0 Z " fill="#DABE68" transform="translate(137,284)"/>
<path d="M0 0 C0 0.66 0 1.32 0 2 C-4.22949995 4.41685712 -7.12335991 5.34833144 -12 5 C-11.67 4.01 -11.34 3.02 -11 2 C-9.00390625 1.015625 -9.00390625 1.015625 -6.5625 0.25 C-5.75941406 -0.01296875 -4.95632812 -0.2759375 -4.12890625 -0.546875 C-2 -1 -2 -1 0 0 Z " fill="#E3E3E1" transform="translate(122,303)"/>
<path d="M0 0 C0.6875 2.0625 0.6875 2.0625 1 4 C0.01 4.33 -0.98 4.66 -2 5 C-2.66 4.34 -3.32 3.68 -4 3 C-4.598125 3.350625 -5.19625 3.70125 -5.8125 4.0625 C-8 5 -8 5 -11 4 C-9.73760288 3.13341385 -8.46472499 2.28207941 -7.1875 1.4375 C-6.47980469 0.96183594 -5.77210937 0.48617188 -5.04296875 -0.00390625 C-3 -1 -3 -1 0 0 Z " fill="#CCCCCB" transform="translate(124,300)"/>
<path d="M0 0 C0.12375 0.639375 0.2475 1.27875 0.375 1.9375 C0.684375 2.9584375 0.684375 2.9584375 1 4 C1.66 4.33 2.32 4.66 3 5 C1.02 7.97 1.02 7.97 -1 11 C-3 10 -3 10 -4 8 C-3.34 7.34 -2.68 6.68 -2 6 C-1.28591666 4.01643517 -0.61382258 2.01684563 0 0 Z " fill="#BFBFBF" transform="translate(133,289)"/>
<path d="M0 0 C4.875 4.75 4.875 4.75 6 7 C5.01 7.33 4.02 7.66 3 8 C0 6 0 6 -0.75 4 C-1 2 -1 2 0 0 Z " fill="#1B1A1A" transform="translate(137,252)"/>
<path d="M0 0 C0 1.32 0 2.64 0 4 C-2.375 5.8125 -2.375 5.8125 -5 7 C-5.66 6.67 -6.32 6.34 -7 6 C-7 5.34 -7 4.68 -7 4 C-2.52941176 0 -2.52941176 0 0 0 Z " fill="#D9D9D9" transform="translate(281,144)"/>
<path d="M0 0 C0.66 0.33 1.32 0.66 2 1 C0.63016497 4.16115776 0.0109362 4.9927092 -3 7 C-3.66 6.34 -4.32 5.68 -5 5 C-3.35 3.35 -1.7 1.7 0 0 Z " fill="#D7C592" transform="translate(312,112)"/>
<path d="M0 0 C0.66 0.66 1.32 1.32 2 2 C-0.97 4.475 -0.97 4.475 -4 7 C-4.33 6.01 -4.66 5.02 -5 4 C-3.35 2.68 -1.7 1.36 0 0 Z " fill="#BCBCBC" transform="translate(293,132)"/>
<path d="M0 0 C-1.28519565 2.86697492 -2.57129254 4.97607712 -5 7 C-5.66 7 -6.32 7 -7 7 C-3.86206897 0 -3.86206897 0 0 0 Z " fill="#CCCCCC" transform="translate(301,126)"/>
<path d="M0 0 C-2.3125 2.0625 -2.3125 2.0625 -5 4 C-5.99 3.67 -6.98 3.34 -8 3 C-6 0 -6 0 -4 -0.75 C-2 -1 -2 -1 0 0 Z " fill="#E7E7E7" transform="translate(131,299)"/>
<path d="M0 0 C0.66 0.33 1.32 0.66 2 1 C2 1.66 2 2.32 2 3 C1.01 2.67 0.02 2.34 -1 2 C-0.67 1.34 -0.34 0.68 0 0 Z " fill="#151517" transform="translate(173,228)"/>
<path d="M0 0 C0.99 0.495 0.99 0.495 2 1 C1.01 1.495 1.01 1.495 0 2 C0 1.34 0 0.68 0 0 Z " fill="#141415" transform="translate(93,263)"/>
<path d="M0 0 C0.33 0.66 0.66 1.32 1 2 C0.34 1.67 -0.32 1.34 -1 1 C-0.67 0.67 -0.34 0.34 0 0 Z " fill="#141416" transform="translate(161,240)"/>
<path d="" fill="#141416" transform="translate(0,0)"/>
<path d="M0 0 C3 1 3 1 3 1 Z " fill="#151517" transform="translate(162,225)"/>
<path d="M0 0 C0.99 0.495 0.99 0.495 2 1 C1.01 1.495 1.01 1.495 0 2 C0 1.34 0 0.68 0 0 Z " fill="#151517" transform="translate(166,224)"/>
<path d="" fill="#161616" transform="translate(0,0)"/>
<path d="M0 0 C2 1 2 1 2 1 Z " fill="#121214" transform="translate(171,232)"/>
<path d="" fill="#151517" transform="translate(0,0)"/>
<path d="" fill="#161618" transform="translate(0,0)"/>
<path d="" fill="#171719" transform="translate(0,0)"/>
<path d="" fill="#171719" transform="translate(0,0)"/>
<path d="" fill="#141414" transform="translate(0,0)"/>
<path d="" fill="#0B0B0D" transform="translate(0,0)"/>
<path d="" fill="#151515" transform="translate(0,0)"/>
<path d="" fill="#161618" transform="translate(0,0)"/>
<path d="" fill="#171719" transform="translate(0,0)"/>
<path d="" fill="#151517" transform="translate(0,0)"/>
<path d="" fill="#151517" transform="translate(0,0)"/>
<path d="" fill="#141416" transform="translate(0,0)"/>
<path d="" fill="#171719" transform="translate(0,0)"/>
<path d="" fill="#171719" transform="translate(0,0)"/>
<path d="" fill="#161618" transform="translate(0,0)"/>
<path d="" fill="#121214" transform="translate(0,0)"/>
<path d="" fill="#151517" transform="translate(0,0)"/>
<path d="" fill="#151517" transform="translate(0,0)"/>
<path d="" fill="#111111" transform="translate(0,0)"/>
<path d="" fill="#161618" transform="translate(0,0)"/>
<path d="" fill="#161616" transform="translate(0,0)"/>
<path d="" fill="#161616" transform="translate(0,0)"/>
<path d="" fill="#151517" transform="translate(0,0)"/>
<path d="" fill="#151517" transform="translate(0,0)"/>
<path d="" fill="#151517" transform="translate(0,0)"/>
<path d="" fill="#141416" transform="translate(0,0)"/>
<path d="" fill="#171719" transform="translate(0,0)"/>
<path d="" fill="#171719" transform="translate(0,0)"/>
<path d="" fill="#171719" transform="translate(0,0)"/>
<path d="" fill="#171719" transform="translate(0,0)"/>
<path d="" fill="#171719" transform="translate(0,0)"/>
<path d="" fill="#171717" transform="translate(0,0)"/>
<path d="" fill="#0F0F11" transform="translate(0,0)"/>
<path d="" fill="#171719" transform="translate(0,0)"/>
<path d="" fill="#161618" transform="translate(0,0)"/>
<path d="" fill="#171719" transform="translate(0,0)"/>
<path d="" fill="#0F0F0F" transform="translate(0,0)"/>
<path d="" fill="#171719" transform="translate(0,0)"/>
<path d="" fill="#141414" transform="translate(0,0)"/>
<path d="" fill="#151515" transform="translate(0,0)"/>
<path d="" fill="#141416" transform="translate(0,0)"/>
<path d="" fill="#171717" transform="translate(0,0)"/>
<path d="" fill="#171717" transform="translate(0,0)"/>
<path d="" fill="#171719" transform="translate(0,0)"/>
<path d="" fill="#161618" transform="translate(0,0)"/>
<path d="" fill="#0E0E0E" transform="translate(0,0)"/>
<path d="" fill="#171717" transform="translate(0,0)"/>
<path d="" fill="#171719" transform="translate(0,0)"/>
<path d="" fill="#161618" transform="translate(0,0)"/>
<path d="" fill="#161618" transform="translate(0,0)"/>
<path d="" fill="#141416" transform="translate(0,0)"/>
<path d="" fill="#161618" transform="translate(0,0)"/>
<path d="" fill="#0F0F11" transform="translate(0,0)"/>
<path d="" fill="#131315" transform="translate(0,0)"/>
<path d="" fill="#131313" transform="translate(0,0)"/>
<path d="" fill="#161618" transform="translate(0,0)"/>
<path d="" fill="#111113" transform="translate(0,0)"/>
<path d="" fill="#161618" transform="translate(0,0)"/>
<path d="" fill="#171719" transform="translate(0,0)"/>
<path d="" fill="#0F1110" transform="translate(0,0)"/>
<path d="" fill="#0F0F0F" transform="translate(0,0)"/>
<path d="" fill="#0F0F0F" transform="translate(0,0)"/>
<path d="" fill="#171717" transform="translate(0,0)"/>
<path d="" fill="#171717" transform="translate(0,0)"/>
<path d="" fill="#161415" transform="translate(0,0)"/>
<path d="" fill="#161616" transform="translate(0,0)"/>
<path d="" fill="#151314" transform="translate(0,0)"/>
<path d="" fill="#151314" transform="translate(0,0)"/>
<path d="" fill="#161616" transform="translate(0,0)"/>
<path d="" fill="#141414" transform="translate(0,0)"/>
<path d="" fill="#171717" transform="translate(0,0)"/>
<path d="" fill="#0E0E10" transform="translate(0,0)"/>
<path d="" fill="#0D0D0D" transform="translate(0,0)"/>
<path d="" fill="#141414" transform="translate(0,0)"/>
<path d="" fill="#131313" transform="translate(0,0)"/>
<path d="" fill="#131313" transform="translate(0,0)"/>
<path d="" fill="#0A0A0A" transform="translate(0,0)"/>
<path d="" fill="#0C0C0C" transform="translate(0,0)"/>
<path d="" fill="#141414" transform="translate(0,0)"/>
<path d="" fill="#161616" transform="translate(0,0)"/>
</svg>
