<?xml version="1.0" encoding="UTF-8"?>
<svg version="1.1" xmlns="http://www.w3.org/2000/svg" width="461" height="482">
<path d="M0 0 C15.61096637 12.02018944 20.68754964 26.69292194 23.4375 45.5625 C24.4275 45.2325 25.4175 44.9025 26.4375 44.5625 C26.4375 43.9025 26.4375 43.2425 26.4375 42.5625 C27.0975 42.5625 27.7575 42.5625 28.4375 42.5625 C28.4375 36.2925 28.4375 30.0225 28.4375 23.5625 C36.75076229 20.79141257 46.98640416 21.86831347 54.94921875 25.2421875 C64.69618856 30.41404903 73.95321282 38.9046804 77.4375 49.5625 C80.27445866 61.59931031 78.20605119 72.18312655 72.1875 82.8125 C66.55604736 91.18265301 57.39472383 97.57915054 47.4375 99.5625 C35.33076615 100.4272667 23.53074255 96.05191312 13.4375 89.5625 C11.50454588 87.65810864 10.03917572 85.78089571 8.4375 83.5625 C8.4375 82.9025 8.4375 82.2425 8.4375 81.5625 C7.51130859 82.35914063 7.51130859 82.35914063 6.56640625 83.171875 C-3.85014123 91.86025859 -16.05329201 97.38879004 -29.94970703 96.39111328 C-39.23800441 95.13338212 -47.29199315 92.66484388 -54.5625 86.5625 C-56.0475 85.5725 -56.0475 85.5725 -57.5625 84.5625 C-57.5625 83.9025 -57.5625 83.2425 -57.5625 82.5625 C-58.5525 82.5625 -59.5425 82.5625 -60.5625 82.5625 C-60.8925 81.9025 -61.2225 81.2425 -61.5625 80.5625 C-62.2225 80.5625 -62.8825 80.5625 -63.5625 80.5625 C-63.665625 81.119375 -63.76875 81.67625 -63.875 82.25 C-65.17707718 86.62971414 -66.72813271 89.03346661 -70.63671875 91.51171875 C-71.83260112 92.10858197 -73.03758194 92.68748531 -74.25 93.25 C-74.88139893 93.55107666 -75.51279785 93.85215332 -76.16333008 94.16235352 C-86.46304643 98.95935472 -97.05962418 100.44643718 -108.015625 96.73046875 C-118.09040607 92.11028541 -125.20882024 84.89913929 -129.9375 75 C-133.36767313 65.63188011 -132.68198704 55.16834133 -128.82421875 46.05859375 C-123.32758414 35.18444664 -116.18710612 28.04795407 -104.6640625 23.875 C-96.72148444 21.54085461 -89.34952303 21.96682566 -81.5625 24.5625 C-81.0675 31.4925 -81.0675 31.4925 -80.5625 38.5625 C-78.9125 38.8925 -77.2625 39.2225 -75.5625 39.5625 C-75.583125 38.82 -75.60375 38.0775 -75.625 37.3125 C-75.54376624 33.73821452 -74.6888636 30.94159079 -73.5625 27.5625 C-73.315 26.69625 -73.0675 25.83 -72.8125 24.9375 C-68.13136296 12.29842999 -59.72251385 2.49517235 -47.5625 -3.4375 C-32.47977905 -10.24213787 -13.80114323 -9.36433126 0 0 Z " fill="#FBD86E" transform="translate(244.5625,81.4375)"/>
<path d="M0 0 C3.65290837 2.02926007 6.44667862 4.21820791 9.36328125 7.203125 C10.16830078 8.01910156 10.97332031 8.83507812 11.80273438 9.67578125 C12.63095703 10.52527344 13.45917969 11.37476563 14.3125 12.25 C20.02284215 18.08203057 25.7745388 23.71907467 32 29 C33.1528982 29.99675488 34.30526072 30.99412978 35.45703125 31.9921875 C43.45648894 38.8748416 51.5609368 45.61044618 59.7734375 52.23828125 C64.23441677 55.85579806 68.62223672 59.5138482 72.875 63.375 C81.75933922 71.43256318 90.73723143 79.09851605 100.68261719 85.82788086 C102.1545689 86.83906046 103.5823917 87.91394626 105 89 C105 89.66 105 90.32 105 91 C105.53238281 91.22429687 106.06476563 91.44859375 106.61328125 91.6796875 C109.80573941 93.44572819 112.44614184 95.74425473 115.1875 98.125 C116.08650024 98.8994043 116.08650024 98.8994043 117.00366211 99.68945312 C122.89775868 104.81750545 128.57781526 110.16990168 134.2253418 115.56689453 C137.0593967 118.26960945 139.8505007 120.88147984 142.921875 123.31640625 C145 125 145 125 146.1875 127.4375 C148.21909298 130.30975215 149.35458341 130.780731 152.5 132.1875 C158.16119343 134.78117452 162.21770028 138.53698718 166.65234375 142.79296875 C168.99099225 145.11371178 168.99099225 145.11371178 172 147 C172 147.66 172 148.32 172 149 C172.66 149 173.32 149 174 149 C174 149.66 174 150.32 174 151 C174.99 151.33 175.98 151.66 177 152 C179.04174627 154.62510234 180 156.20739335 180 159.5625 C178.58718474 163.00623719 177.25458616 164.16929529 174 166 C170.80842444 166.76597813 168.18923308 166.79863933 165 166 C161.92838109 164.03284513 159.50212948 161.6387086 157 159 C156.04288205 158.04045282 155.08473543 157.08192918 154.125 156.125 C153.42375 155.42375 152.7225 154.7225 152 154 C151.34 153.67 150.68 153.34 150 153 C150 152.34 150 151.68 150 151 C149.01 150.67 148.02 150.34 147 150 C145.53515625 148.51171875 145.53515625 148.51171875 144.0625 146.6875 C143.53398437 146.05328125 143.00546875 145.4190625 142.4609375 144.765625 C141.97882813 144.18296875 141.49671875 143.6003125 141 143 C138.5603344 140.22382879 136.03222735 138.34487078 132.9375 136.375 C128.02965523 133.20028853 123.90302365 129.38776471 119.67578125 125.3671875 C116.93112178 122.9390654 114.05005361 121.02236301 111 119 C109.79447774 117.87352838 108.62184304 116.70983073 107.5 115.5 C105.3145635 113.22695135 103.23316429 111.36530557 100.5625 109.6875 C99.716875 109.130625 98.87125 108.57375 98 108 C98 107.34 98 106.68 98 106 C97.34 106 96.68 106 96 106 C96 105.34 96 104.68 96 104 C95.34 104 94.68 104 94 104 C92.61992749 102.7151049 91.29579647 101.36984198 90 100 C86.49284835 96.40055489 83.02966439 93.00081391 79 90 C77.68 90 76.36 90 75 90 C74.5875 90.721875 74.175 91.44375 73.75 92.1875 C70.92094149 96.73420118 66.86002845 99.1954637 61.72265625 100.640625 C56.36154573 101.48373982 52.77306908 100.77705838 48 98 C45.17564594 95.82137301 42.57923159 93.46152856 40 91 C39.11828125 90.17822266 39.11828125 90.17822266 38.21875 89.33984375 C33.31709578 84.62757163 29.14461896 79.37899461 25 74 C24.42765625 73.28199219 23.8553125 72.56398438 23.265625 71.82421875 C22 70 22 70 22 68 C21.34 68 20.68 68 20 68 C18 65 18 65 18 62 C17.34 62 16.68 62 16 62 C5.41431824 45.58531946 -0.30990187 24.4822481 -0.0625 4.9375 C-0.05347656 3.99777344 -0.04445313 3.05804688 -0.03515625 2.08984375 C-0.02355469 1.40019531 -0.01195313 0.71054688 0 0 Z " fill="#F6D46D" transform="translate(83,206)"/>
<path d="M0 0 C0.98242676 0.27360352 1.96485352 0.54720703 2.97705078 0.82910156 C10.01005779 2.80353394 17.01341646 4.86744688 24 7 C23.3768736 12.19818603 21.75919698 16.59059308 19.75 21.375 C19.27747803 22.50663574 19.27747803 22.50663574 18.79541016 23.66113281 C15.50096364 31.39679501 11.99963343 37.07761507 6 43 C5.02684163 44.0257076 4.05691054 45.05448459 3.08984375 46.0859375 C-6.13662804 55.78702204 -15.65852837 64.03852264 -29.61328125 65.3359375 C-37.67290759 65.42104443 -43.88149482 64.85585697 -51 61 C-51.8765625 60.52949219 -52.753125 60.05898438 -53.65625 59.57421875 C-60.94988753 55.42328092 -65.92550599 50.17712652 -71.3515625 43.8671875 C-72.94643929 42.01158729 -72.94643929 42.01158729 -74.59375 40.45703125 C-76.44930979 38.53446513 -77.60411884 36.30596568 -78.8828125 33.9765625 C-80.48552256 31.14099855 -82.26787006 28.4266691 -84.046875 25.69921875 C-85 24 -85 24 -85 22 C-85.66 21.67 -86.32 21.34 -87 21 C-90 14.76923077 -90 14.76923077 -90 11 C-90.66 10.67 -91.32 10.34 -92 10 C-90.5511348 7.10226961 -88.35422647 6.89035928 -85.42529297 5.89331055 C-84.64557129 5.63976807 -83.86584961 5.38622559 -83.0625 5.125 C-81.86197998 4.73018433 -81.86197998 4.73018433 -80.63720703 4.32739258 C-55.51421977 -3.71088405 -25.7363004 -7.29792902 0 0 Z " fill="#F7D46C" transform="translate(251,224)"/>
<path d="M0 0 C2.65429492 1.51130781 5.03016663 3.31292255 7.4375 5.1875 C8.12908203 5.71561279 8.82066406 6.24372559 9.53320312 6.7878418 C16.570227 12.26294677 22.99872086 18.33693871 29.41992188 24.50976562 C31.46550585 26.43903704 33.59669659 28.25498254 35.75 30.0625 C38.49552174 32.44913001 40.63589567 34.54426902 42 38 C41.65302632 42.52574367 39.89254977 44.64533307 36.8125 47.875 C33.97045939 50.8980623 31.19568431 53.9182508 28.5625 57.125 C27.716875 58.07375 26.87125 59.0225 26 60 C25.34 60 24.68 60 24 60 C23.75378906 60.57105469 23.50757813 61.14210938 23.25390625 61.73046875 C19.08249799 69.28058776 9.23719058 78.25426981 1 81 C-1.00065003 81.07455839 -3.0015865 81.14547126 -5.00317383 81.18798828 C-14.22734612 81.42915552 -21.61996882 82.9103757 -30 87 C-31.13566406 87.52980469 -32.27132812 88.05960937 -33.44140625 88.60546875 C-39.77059037 91.75205972 -44.467543 94.80859535 -48.73046875 100.49609375 C-49.35888672 101.24052734 -49.35888672 101.24052734 -50 102 C-50.66 102 -51.32 102 -52 102 C-52.09796875 102.59941406 -52.1959375 103.19882812 -52.296875 103.81640625 C-53.14252379 106.44261555 -54.10010818 107.25030229 -56.25 108.9375 C-58.6537705 110.8605164 -60.54910101 112.61447018 -62.625 114.9375 C-65 117 -65 117 -67.5625 117.125 C-70.68083774 115.6857672 -72.06618115 113.79329389 -74 111 C-72.44577655 107.18508789 -69.89621092 104.81347397 -67 102 C-63.65830446 98.73759517 -60.32750688 95.4643709 -57 92.1875 C-55.66582031 90.89102539 -55.66582031 90.89102539 -54.3046875 89.56835938 C-44.64644078 80.07212258 -44.64644078 80.07212258 -40.78125 67.47265625 C-41.13700001 63.45141059 -42.68174969 59.88791722 -44.05859375 56.1171875 C-46.33322501 48.58542092 -45.93465326 41.13399315 -42.30859375 34.1328125 C-35.51957123 23.06771909 -14.46917721 -4.26183038 0 0 Z " fill="#F4D36D" transform="translate(328,224)"/>
<path d="M0 0 C3.7751055 1.32308459 6.91964051 3.13405074 10.26318359 5.27563477 C16.69917764 9.37059926 22.23108825 12.59740933 30 13 C30.94794434 13.05921631 30.94794434 13.05921631 31.91503906 13.11962891 C45.33339232 13.86920588 53.97068494 11.76539734 64.7734375 3.390625 C67 2 67 2 71 2 C72.3772448 3.28792558 73.70396655 4.63038223 75 6 C77.00144111 7.41294149 79.0477425 8.76358838 81.125 10.0625 C82.17945313 10.73410156 83.23390625 11.40570313 84.3203125 12.09765625 C88.88443138 14.60072457 88.88443138 14.60072457 98 17 C98 26.9 98 36.8 98 47 C92.555 44.525 92.555 44.525 87 42 C83.89811832 40.90724657 83.89811832 40.90724657 81.16796875 40.26953125 C80.19214844 40.02477051 79.21632813 39.78000977 78.2109375 39.52783203 C76.71433594 39.17374268 76.71433594 39.17374268 75.1875 38.8125 C73.60775391 38.43134033 73.60775391 38.43134033 71.99609375 38.04248047 C45.41708057 31.76187929 19.23587239 33.13823814 -6.98828125 40.48876953 C-9 41 -9 41 -12.5 41.52734375 C-13.325 41.68332031 -14.15 41.83929688 -15 42 C-15.33 42.66 -15.66 43.32 -16 44 C-17.7421875 44.8515625 -17.7421875 44.8515625 -19.875 45.625 C-20.92300781 46.01558594 -20.92300781 46.01558594 -21.9921875 46.4140625 C-24 47 -24 47 -27 47 C-27.33 47.66 -27.66 48.32 -28 49 C-28.66 48.67 -29.32 48.34 -30 48 C-30.33 38.43 -30.66 28.86 -31 19 C-27.48629703 16.89177822 -24.54820028 15.28756471 -20.8125 13.8125 C-19.95269531 13.46832031 -19.09289062 13.12414062 -18.20703125 12.76953125 C-16 12 -16 12 -14 12 C-13.67 11.34 -13.34 10.68 -13 10 C-9.93876508 8.15170722 -6.96738812 6.41833 -3.6875 5 C-1.50638818 3.70748929 -0.92595585 2.31488963 0 0 Z " fill="#FAD76E" transform="translate(183,174)"/>
<path d="M0 0 C3.30680982 12.48911208 3.30680982 12.48911208 2 18 C0.06290511 20.82615667 -2.35266025 22.84967039 -5 25 C-6.21202626 26.03736745 -7.42025822 27.0791816 -8.625 28.125 C-9.28371094 28.69089844 -9.94242187 29.25679688 -10.62109375 29.83984375 C-14.33528765 33.21250258 -17.8368425 36.79538952 -21.34423828 40.38134766 C-24.41441322 43.50009244 -27.57481253 46.26602153 -31 49 C-31.33 49.66 -31.66 50.32 -32 51 C-35.68069887 49.46356148 -37.98775204 47.21849055 -40.75 44.375 C-41.54921875 43.55773437 -42.3484375 42.74046875 -43.171875 41.8984375 C-43.77515625 41.27195312 -44.3784375 40.64546875 -45 40 C-42.81124325 35.46888954 -40.53940177 32.0087248 -36.2578125 29.203125 C-32.72123429 26.81148218 -29.72314614 24.1695051 -26.625 21.25 C-26.06063232 20.7250293 -25.49626465 20.20005859 -24.91479492 19.65917969 C-20.99156011 15.99113742 -17.18640892 12.22422524 -13.48828125 8.328125 C-12 7 -12 7 -10 7 C-9.79375 6.401875 -9.5875 5.80375 -9.375 5.1875 C-7.30359196 1.89207812 -3.93871505 0 0 0 Z " fill="#F0CF6C" transform="translate(270,275)"/>
<path d="M0 0 C6.95634834 2.64768814 12.32133189 6.22826981 18 11 C18.69996094 11.56589844 19.39992187 12.13179688 20.12109375 12.71484375 C21.79243682 14.09025485 23.40300602 15.5389204 25 17 C25 17.66 25 18.32 25 19 C25.66 19 26.32 19 27 19 C27 19.66 27 20.32 27 21 C27.99 21.33 28.98 21.66 30 22 C32.04174627 24.62510234 33 26.20739335 33 29.5625 C31.58718474 33.00623719 30.25458616 34.16929529 27 36 C23.80842444 36.76597813 21.18923308 36.79863933 18 36 C14.92838109 34.03284513 12.50212948 31.6387086 10 29 C9.04288205 28.04045282 8.08473543 27.08192918 7.125 26.125 C6.42375 25.42375 5.7225 24.7225 5 24 C4.34 23.67 3.68 23.34 3 23 C3 22.34 3 21.68 3 21 C2.01 20.67 1.02 20.34 0 20 C-1.46484375 18.546875 -1.46484375 18.546875 -2.9375 16.75 C-3.45441406 16.12480469 -3.97132813 15.49960937 -4.50390625 14.85546875 C-4.99761719 14.24316406 -5.49132812 13.63085938 -6 13 C-6.78375 12.030625 -7.5675 11.06125 -8.375 10.0625 C-8.91125 9.381875 -9.4475 8.70125 -10 8 C-3.375 4.125 -3.375 4.125 0 3 C0 2.01 0 1.02 0 0 Z " fill="#F5D36E" transform="translate(230,336)"/>
<path d="M0 0 C4.88415222 1.19125664 7.77222369 3.23882638 11.38671875 6.5625 C13.14900741 8.20000553 13.14900741 8.20000553 16 10 C16.4921875 12.32421875 16.4921875 12.32421875 16 15 C13.9453125 17.39453125 13.9453125 17.39453125 11.125 19.8125 C10.12855469 20.67359375 9.13210937 21.5346875 8.10546875 22.421875 C7.07252102 23.28390332 6.03739114 24.14332417 5 25 C4.04738281 25.78890625 3.09476563 26.5778125 2.11328125 27.390625 C-6.56700814 34.43623215 -6.56700814 34.43623215 -13.734375 34.34375 C-16 34 -16 34 -19.0625 31.875 C-21 29 -21 29 -21.75 26.25 C-20.60137808 21.27263834 -17.55058238 17.61484631 -14 14 C-13.34 14 -12.68 14 -12 14 C-11.79375 13.46375 -11.5875 12.9275 -11.375 12.375 C-9.46749574 9.08021991 -6.95180616 6.40636372 -4 4 C-3.34 4 -2.68 4 -2 4 C-1.34 2.68 -0.68 1.36 0 0 Z " fill="#F6D46D" transform="translate(193,338)"/>
<path d="M0 0 C3.95513784 0.46143275 6.77247401 2.67525597 10 4.84375 C14.16057724 7.24908372 18.26137384 7.45857672 23 7 C29.48604681 4.68946201 29.48604681 4.68946201 34 0 C38.875 0.875 38.875 0.875 40 2 C40 5.35090081 39.8221882 7.93392111 37.72265625 10.65625 C32.33760381 15.62316895 25.31393214 19.05917736 17.9375 19.5 C10.41978492 18.54536951 5.00153638 15.75934493 0 10 C-0.66 9.34 -1.32 8.68 -2 8 C-2.25 5 -2.25 5 -2 2 C-1.34 1.34 -0.68 0.68 0 0 Z " fill="#302E2B" transform="translate(200,258)"/>
<path d="M0 0 C0.88691528 0.32641479 0.88691528 0.32641479 1.79174805 0.65942383 C2.28674805 3.13442383 2.28674805 3.13442383 2.79174805 5.65942383 C1.50547094 6.83202994 0.21255022 7.99735213 -1.08325195 9.15942383 C-1.80254883 9.80911133 -2.5218457 10.45879883 -3.26293945 11.12817383 C-5.20825195 12.65942383 -5.20825195 12.65942383 -7.20825195 12.65942383 C-7.40805664 13.36067383 -7.60786133 14.06192383 -7.8137207 14.78442383 C-9.68229108 18.63671459 -12.33146388 20.87012416 -15.52075195 23.65942383 C-16.66355559 24.67927578 -17.80549424 25.70009789 -18.9465332 26.72192383 C-19.49776855 27.21047852 -20.04900391 27.6990332 -20.61694336 28.20239258 C-22.13972827 29.59668229 -23.57214941 31.0450431 -25.0012207 32.53442383 C-27.20825195 34.65942383 -27.20825195 34.65942383 -29.20825195 34.65942383 C-29.53825195 35.64942383 -29.86825195 36.63942383 -30.20825195 37.65942383 C-33.07549882 37.08597446 -34.06970346 36.79797232 -36.20825195 34.65942383 C-36.13131658 31.15590531 -35.35634063 29.82125804 -32.9777832 27.22192383 C-32.00196289 26.37629883 -31.02614258 25.53067383 -30.02075195 24.65942383 C-28.92881296 23.69808441 -27.837702 22.73580384 -26.74731445 21.77270508 C-26.17142578 21.2694873 -25.59553711 20.76626953 -25.00219727 20.24780273 C-21.90940199 17.50940779 -18.90852371 14.67269596 -15.89575195 11.84692383 C-14.23448102 10.28931849 -12.56999458 8.7367049 -10.8894043 7.19995117 C-9.70528349 6.11487968 -8.53487973 5.01474389 -7.37475586 3.90405273 C-6.76937988 3.34508301 -6.16400391 2.78611328 -5.5402832 2.21020508 C-4.99734619 1.69756104 -4.45440918 1.18491699 -3.89501953 0.65673828 C-2.20825195 -0.34057617 -2.20825195 -0.34057617 0 0 Z " fill="#282823" transform="translate(345.208251953125,249.340576171875)"/>
<path d="M0 0 C0.57234375 0.226875 1.1446875 0.45375 1.734375 0.6875 C2.1328125 2.76171875 2.1328125 2.76171875 1.734375 5.6875 C-0.11977993 8.23677227 -2.35581462 10.33810663 -4.640625 12.5 C-5.24390625 13.09748047 -5.8471875 13.69496094 -6.46875 14.31054688 C-10.97075893 18.6875 -10.97075893 18.6875 -13.265625 18.6875 C-13.265625 19.3475 -13.265625 20.0075 -13.265625 20.6875 C-14.91015625 22.30859375 -14.91015625 22.30859375 -17.078125 24.125 C-20.09025765 26.66089332 -20.09025765 26.66089332 -22.90234375 29.41015625 C-24.265625 30.6875 -24.265625 30.6875 -26.265625 30.6875 C-26.595625 32.0075 -26.925625 33.3275 -27.265625 34.6875 C-32.015625 33.9375 -32.015625 33.9375 -34.265625 31.6875 C-33.93292134 28.4050182 -32.69586829 26.74892843 -30.38671875 24.48046875 C-29.79914795 23.89724854 -29.21157715 23.31402832 -28.60620117 22.71313477 C-27.97818604 22.10655029 -27.3501709 21.49996582 -26.703125 20.875 C-25.74466675 19.93515259 -25.74466675 19.93515259 -24.7668457 18.97631836 C-20.39935654 14.71861247 -15.98279428 10.55774536 -11.265625 6.6875 C-10.10740234 5.69556641 -10.10740234 5.69556641 -8.92578125 4.68359375 C-8.13042969 4.02488281 -7.33507812 3.36617188 -6.515625 2.6875 C-5.79890625 2.089375 -5.0821875 1.49125 -4.34375 0.875 C-2.265625 -0.3125 -2.265625 -0.3125 0 0 Z " fill="#292822" transform="translate(355.265625,260.3125)"/>
<path d="M0 0 C0.53753906 0.25136719 1.07507813 0.50273437 1.62890625 0.76171875 C1.04620203 4.15811822 -0.02759713 5.78621391 -2.46875 8.1875 C-3.41790283 9.1300061 -3.41790283 9.1300061 -4.38623047 10.09155273 C-5.06186035 10.74583252 -5.73749023 11.4001123 -6.43359375 12.07421875 C-7.11953613 12.748479 -7.80547852 13.42273926 -8.51220703 14.11743164 C-12.41638519 17.93315215 -16.35015968 21.69477717 -20.5390625 25.19921875 C-21.95439925 26.40632899 -23.32375537 27.66747513 -24.671875 28.94921875 C-25.85330078 30.06296875 -25.85330078 30.06296875 -27.05859375 31.19921875 C-27.76371094 31.87855469 -28.46882813 32.55789063 -29.1953125 33.2578125 C-31.79872503 35.05729872 -33.27139449 35.07114582 -36.37109375 34.76171875 C-36.87109375 32.19921875 -36.87109375 32.19921875 -36.37109375 28.76171875 C-34.73813389 26.8686414 -32.91986299 25.42638419 -30.96484375 23.8671875 C-28.46639334 21.8390779 -26.14883852 19.70844584 -23.81689453 17.49536133 C-18.82103061 12.76609283 -13.69761865 8.22677168 -8.30859375 3.94921875 C-7.504823 3.29119263 -7.504823 3.29119263 -6.68481445 2.61987305 C-2.92362631 -0.29380759 -2.92362631 -0.29380759 0 0 Z " fill="#161615" transform="translate(337.37109375,241.23828125)"/>
<path d="M0 0 C7.36340518 0.67623109 11.13132819 4.75617368 16 10 C21.11067653 16.63605702 20.62233359 23.72534338 19.6796875 31.71484375 C18.3721246 39.6196558 15.03142409 44.64181837 8.859375 49.6796875 C4.28515267 52.92776974 -0.49085585 54.32815315 -6 55 C-6 54.34 -6 53.68 -6 53 C-5.45472656 52.79246094 -4.90945313 52.58492187 -4.34765625 52.37109375 C3.00009426 49.36919226 9.59343311 45.53906896 14.125 38.875 C15.07531055 35.75255105 14.99574005 34.07774196 14 31 C13.01 30.67 12.02 30.34 11 30 C10.96261719 29.09378906 10.92523438 28.18757813 10.88671875 27.25390625 C10.6375958 15.3284565 10.6375958 15.3284565 5.24609375 5.15625 C4.00655914 4.09450723 2.73437985 3.06910299 1.42578125 2.09375 C0.95527344 1.7328125 0.48476563 1.371875 0 1 C0 0.67 0 0.34 0 0 Z " fill="#8D8D84" transform="translate(296,118)"/>
<path d="M0 0 C5.14253679 0.35301273 7.82361872 3.23824171 11.3125 6.6875 C15.54511328 10.75385777 19.72761884 14.52429758 24.609375 17.81640625 C26 19 26 19 27 22 C25 25 25 25 21.8125 25.9375 C15.81531916 26.03581444 12.84359945 23.77473835 8.69921875 19.78515625 C4.11463769 14.91544577 0.28954228 10.32349773 -2 4 C-1.08203125 1.7734375 -1.08203125 1.7734375 0 0 Z " fill="#B6B5B5" transform="translate(153,312)"/>
<path d="M0 0 C5.27359727 1.80926534 8.48224462 5.06519946 11 10 C11.25 12.875 11.25 12.875 11 15 C8.875 15.8125 8.875 15.8125 6 16 C4.48498975 14.7750981 2.97265005 13.54427187 1.5234375 12.2421875 C-1.11360492 10.09198368 -2.59976719 9.73331507 -6 10 C-8.45360413 11.69568453 -10.64836241 13.52131307 -12.8515625 15.53125 C-15 17 -15 17 -17.2734375 16.71875 C-17.84320313 16.4815625 -18.41296875 16.244375 -19 16 C-18.74017526 9.63429392 -16.60776634 6.34413792 -12 2 C-7.9339171 -0.71072193 -4.77311026 -0.63535577 0 0 Z " fill="#1F1D19" transform="translate(197,230)"/>
<path d="M0 0 C8.79632357 -0.80900494 15.25655598 -0.57299657 22.5234375 4.75390625 C30.45573805 11.94802741 35.48833029 20.29755402 36.12304688 31.09277344 C36.58600728 44.24197816 36.58600728 44.24197816 35 49 C34.34 49 33.68 49 33 49 C32.97421875 48.04480469 32.9484375 47.08960938 32.921875 46.10546875 C32.31317141 32.22979374 28.81414082 20.23490225 18.96875 9.859375 C13.27707394 4.9513355 7.31005063 3.29873996 0 2 C0 1.34 0 0.68 0 0 Z " fill="#43403D" transform="translate(223,87)"/>
<path d="M0 0 C4.36093664 2.85510895 8.05541371 6.07304303 10 11 C9.625 13.25 9.625 13.25 9 15 C6.8125 15.8125 6.8125 15.8125 4 16 C1.375 13.6875 1.375 13.6875 -1 11 C-4.30014795 8.79990136 -5.1718327 8.37680997 -9 9 C-11.0167658 10.64633943 -13.01739574 12.31267723 -15 14 C-16.32 14 -17.64 14 -19 14 C-19.35957762 10.22443495 -19.11727831 8.23004592 -17.375 4.8125 C-12.51613771 -0.94141587 -7.07117761 -2.37295842 0 0 Z " fill="#1F1D19" transform="translate(248,231)"/>
<path d="M0 0 C-0.30260377 3.37017533 -0.79176953 4.77849436 -3.14453125 7.28125 C-4.02496094 8.0134375 -4.90539062 8.745625 -5.8125 9.5 C-9.33256008 12.45331481 -12.1542713 15.40115926 -15 19 C-16.34407784 20.242638 -17.71834016 21.45367488 -19.125 22.625 C-21.6326742 24.71630566 -23.15999196 26.23998794 -25 29 C-25.66 29 -26.32 29 -27 29 C-27.66 30.32 -28.32 31.64 -29 33 C-30.32 33 -31.64 33 -33 33 C-31.54004915 21.12996482 -15.58989187 8.55843054 -6.75390625 1.10546875 C-4.42770023 -0.36071456 -2.69295954 -0.22441329 0 0 Z " fill="#191814" transform="translate(326,235)"/>
<path d="M0 0 C0.2475 0.639375 0.495 1.27875 0.75 1.9375 C1.81562433 4.18741541 1.81562433 4.18741541 4.125 4.75 C4.74375 4.8325 5.3625 4.915 6 5 C5.06409496 6.1055189 4.12620142 7.20935453 3.1875 8.3125 C2.40439453 9.23482422 2.40439453 9.23482422 1.60546875 10.17578125 C-1.3373102 13.51952278 -1.3373102 13.51952278 -3 15 C-3.66 15 -4.32 15 -5 15 C-5.33 16.32 -5.66 17.64 -6 19 C-10.75 18.25 -10.75 18.25 -13 16 C-12.66267052 12.81084932 -11.54202093 11.17753606 -9.27734375 8.984375 C-8.73916016 8.45585937 -8.20097656 7.92734375 -7.64648438 7.3828125 C-7.08251953 6.84398437 -6.51855469 6.30515625 -5.9375 5.75 C-5.36966797 5.19570313 -4.80183594 4.64140625 -4.21679688 4.0703125 C-2.81787531 2.70665786 -1.40980886 1.35239583 0 0 Z " fill="#2D2D27" transform="translate(334,276)"/>
<path d="M0 0 C3.62240697 0.6134053 5.81673131 2.12583577 8.6875 4.375 C9.47511719 4.98085938 10.26273438 5.58671875 11.07421875 6.2109375 C13 8 13 8 14 11 C12 14 12 14 8.6875 14.875 C4.55535086 15.01507285 3.17420527 14.55699869 0 12 C-2.38246609 9.3710719 -3 8.61165822 -3 5 C-2.01 4.34 -1.02 3.68 0 3 C0 2.01 0 1.02 0 0 Z " fill="#EBE9E9" transform="translate(166,323)"/>
<path d="M0 0 C2.4375 0.6875 2.4375 0.6875 5 2 C6.125 4.125 6.125 4.125 6 7 C3.21663202 14.47030371 -3.31993809 19.11191443 -10 23 C-10.99 23 -11.98 23 -13 23 C-12.67 21.68 -12.34 20.36 -12 19 C-10.68 19 -9.36 19 -8 19 C-8.33 17.35 -8.66 15.7 -9 14 C-7.35 14 -5.7 14 -4 14 C-4 12.35 -4 10.7 -4 9 C-2.68 9 -1.36 9 0 9 C-0.185625 7.88625 -0.37125 6.7725 -0.5625 5.625 C-1 2 -1 2 0 0 Z " fill="#D6D6D5" transform="translate(306,147)"/>
<path d="M0 0 C0.52464844 0.26039063 1.04929687 0.52078125 1.58984375 0.7890625 C1.07123679 4.97705836 -1.21812157 7.09496426 -4.09765625 10.0390625 C-4.94714844 10.93109375 -5.79664063 11.823125 -6.671875 12.7421875 C-9.88579481 15.14460402 -11.49148678 15.22510771 -15.41015625 14.7890625 C-15.08015625 15.4490625 -14.75015625 16.1090625 -14.41015625 16.7890625 C-15.07015625 16.7890625 -15.73015625 16.7890625 -16.41015625 16.7890625 C-16.74015625 17.4490625 -17.07015625 18.1090625 -17.41015625 18.7890625 C-18.09765625 17.1015625 -18.09765625 17.1015625 -18.41015625 14.7890625 C-16.22567107 10.11141489 -12.9791185 7.4670315 -8.97265625 4.4140625 C-8.39966797 3.95128906 -7.82667969 3.48851562 -7.23632812 3.01171875 C-2.99060516 -0.26173854 -2.99060516 -0.26173854 0 0 Z " fill="#1F1E18" transform="translate(337.41015625,241.2109375)"/>
<path d="M0 0 C1.32 0 2.64 0 4 0 C7.9367865 10.10559035 10.54402009 22.36793974 7 33 C6.34 33 5.68 33 5 33 C4.97421875 32.04480469 4.9484375 31.08960938 4.921875 30.10546875 C4.55141079 21.66056878 3.3852438 14.84248147 0 7 C-1.04449911 3.86650268 -0.93423645 3.01031744 0 0 Z " fill="#4B4946" transform="translate(251,103)"/>
<path d="M0 0 C0.66 0.33 1.32 0.66 2 1 C0.64069459 10.05011236 -1.95333946 15.81314247 -9.140625 21.6796875 C-13.71484733 24.92776974 -18.49085585 26.32815315 -24 27 C-24 26.34 -24 25.68 -24 25 C-23.45472656 24.79246094 -22.90945313 24.58492187 -22.34765625 24.37109375 C-13.84960193 20.89923908 -7.08847234 17.11240889 -3.2409668 8.50927734 C-2.08043248 5.69733548 -1.01437258 2.86808875 0 0 Z " fill="#3B3B39" transform="translate(314,146)"/>
<path d="M0 0 C1.875 0 1.875 0 4 1 C6.375 3.6875 6.375 3.6875 8 7 C7.1875 10.25 7.1875 10.25 6 13 C6.33 13.66 6.66 14.32 7 15 C2.59404869 13.6537371 0.41708912 11.93896005 -2 8 C-2.375 4.8125 -2.375 4.8125 -2 2 C-1.34 1.34 -0.68 0.68 0 0 Z " fill="#26241F" transform="translate(200,258)"/>
<path d="M0 0 C3.51705958 0.65271556 6.89325077 1.51393024 10.3125 2.5625 C11.19550781 2.83191406 12.07851563 3.10132813 12.98828125 3.37890625 C13.65214844 3.58386719 14.31601562 3.78882813 15 4 C15 5.65 15 7.3 15 9 C14.01 9 13.02 9 12 9 C12 9.99 12 10.98 12 12 C11.34 12 10.68 12 10 12 C10 11.34 10 10.68 10 10 C8.35 10.33 6.7 10.66 5 11 C5 9.02 5 7.04 5 5 C4.01 4.67 3.02 4.34 2 4 C0.8125 1.9375 0.8125 1.9375 0 0 Z " fill="#C2C2C2" transform="translate(266,187)"/>
<path d="M0 0 C6.14689273 0.36881356 8.69027374 1.90050429 13 6 C8.375 10 8.375 10 5 10 C5 9.34 5 8.68 5 8 C4.01 7.67 3.02 7.34 2 7 C0 4 0 4 0 0 Z " fill="#E2E0E1" transform="translate(153,314)"/>
<path d="M0 0 C3.82836401 0.26709516 5.70941223 0.76885063 8.75 3.1875 C13.04993897 8.56242371 13.27993404 13.78434419 13.125 20.375 C13.11597656 21.11105469 13.10695313 21.84710938 13.09765625 22.60546875 C13.07430144 24.4037888 13.03843836 26.20193911 13 28 C12.67 28 12.34 28 12 28 C11.89042969 27.23816406 11.78085937 26.47632813 11.66796875 25.69140625 C9.87920936 12.12688734 9.87920936 12.12688734 1.42578125 2.09375 C0.95527344 1.7328125 0.48476563 1.371875 0 1 C0 0.67 0 0.34 0 0 Z " fill="#43423B" transform="translate(296,118)"/>
<path d="M0 0 C2.34058637 2.12780579 3.70700306 4.11562221 5 7 C4.01 7.33 3.02 7.66 2 8 C1.67 8.99 1.34 9.98 1 11 C-1.86724686 10.42655063 -2.8614515 10.1385485 -5 8 C-4.875 5.5625 -4.875 5.5625 -4 3 C-1.9375 1.1875 -1.9375 1.1875 0 0 Z " fill="#3A3931" transform="translate(314,276)"/>
<path d="M0 0 C0.66 0.33 1.32 0.66 2 1 C-6.25 9.25 -14.5 17.5 -23 26 C-23.66 25.67 -24.32 25.34 -25 25 C-17.62461994 16.29657723 -9.65768209 8.42087037 -1 1 C-0.67 0.67 -0.34 0.34 0 0 Z " fill="#BDA661" transform="translate(315,227)"/>
<path d="M0 0 C0 0.66 0 1.32 0 2 C-1.98 2.99 -1.98 2.99 -4 4 C-4.33 3.67 -4.66 3.34 -5 3 C-6.47047336 6.91063224 -6.47047336 6.91063224 -7 11 C-8.98 11 -10.96 11 -13 11 C-14 8 -14 8 -13.5 6.0625 C-10.28170658 1.63734654 -5.46926235 -0.66294089 0 0 Z " fill="#1F1F1D" transform="translate(348,270)"/>
<path d="M0 0 C0 4.24170573 -1.83750763 6.75139708 -4.6875 9.8125 C-5.120625 10.204375 -5.55375 10.59625 -6 11 C-5.01 11.33 -4.02 11.66 -3 12 C-3.33 12.66 -3.66 13.32 -4 14 C-4.66 14 -5.32 14 -6 14 C-6.66 15.32 -7.32 16.64 -8 18 C-9.32 18 -10.64 18 -12 18 C-11.51179761 13.29784015 -9.59073557 10.86401468 -6.5625 7.3125 C-5.75941406 6.35988281 -4.95632813 5.40726563 -4.12890625 4.42578125 C-2.7980792 2.90937098 -1.42663953 1.42663953 0 0 Z " fill="#2F2B22" transform="translate(305,250)"/>
<path d="M0 0 C2.24893954 -0.10823773 4.49937575 -0.18569645 6.75 -0.25 C8.00296875 -0.29640625 9.2559375 -0.3428125 10.546875 -0.390625 C14 0 14 0 16.453125 2.015625 C16.96359375 2.67046875 17.4740625 3.3253125 18 4 C17.34 4.66 16.68 5.32 16 6 C14.265625 5.72265625 14.265625 5.72265625 12 5 C11.00484375 4.75121094 10.0096875 4.50242187 8.984375 4.24609375 C4.4921875 3.12304688 4.4921875 3.12304688 0 2 C0 1.34 0 0.68 0 0 Z " fill="#282725" transform="translate(223,87)"/>
<path d="M0 0 C0.680625 0.12375 1.36125 0.2475 2.0625 0.375 C1.75631595 4.04920866 1.30478216 5.15635513 -1.5 7.6875 C-2.304375 8.244375 -3.10875 8.80125 -3.9375 9.375 C-4.2675 8.715 -4.5975 8.055 -4.9375 7.375 C-5.5975 7.375 -6.2575 7.375 -6.9375 7.375 C-7.2675 8.035 -7.5975 8.695 -7.9375 9.375 C-8.5975 8.385 -9.2575 7.395 -9.9375 6.375 C-3.86310175 0.49316193 -3.86310175 0.49316193 0 0 Z " fill="#26241A" transform="translate(323.9375,234.625)"/>
<path d="M0 0 C0 3 0 3 -1 5 C-0.01 6.32 0.98 7.64 2 9 C-0.35968744 11.09749995 -1.54616994 11.96905704 -4.75 12.1875 C-5.4925 12.125625 -6.235 12.06375 -7 12 C-7.4375 9.375 -7.4375 9.375 -7 6 C-4.9050512 3.66877878 -2.53926173 1.82671379 0 0 Z " fill="#2C2A25" transform="translate(308,264)"/>
<path d="M0 0 C0.66 0.66 1.32 1.32 2 2 C3.32 2 4.64 2 6 2 C6 5.63 6 9.26 6 13 C5.01 13.495 5.01 13.495 4 14 C3.67 13.34 3.34 12.68 3 12 C2.01 11.67 1.02 11.34 0 11 C0 7.37 0 3.74 0 0 Z " fill="#9F9F9E" transform="translate(307,137)"/>
<path d="M0 0 C-0.33 2.64 -0.66 5.28 -1 8 C-2.65 8 -4.3 8 -6 8 C-5.67 8.66 -5.34 9.32 -5 10 C-5.66 10 -6.32 10 -7 10 C-7.33 10.66 -7.66 11.32 -8 12 C-8.6875 10.3125 -8.6875 10.3125 -9 8 C-7.21395602 4.1459051 -4.64906209 0 0 0 Z " fill="#131311" transform="translate(328,248)"/>
<path d="M0 0 C2.475 0.99 2.475 0.99 5 2 C3.8553125 2.86625 3.8553125 2.86625 2.6875 3.75 C-0.00891579 5.83357198 -0.00891579 5.83357198 -1.6875 8.25 C-2.120625 8.8275 -2.55375 9.405 -3 10 C-3.66 10 -4.32 10 -5 10 C-5.33 10.99 -5.66 11.98 -6 13 C-7.32 11.35 -8.64 9.7 -10 8 C-3.375 4.125 -3.375 4.125 0 3 C0 2.01 0 1.02 0 0 Z " fill="#807E7D" transform="translate(230,336)"/>
<path d="M0 0 C1.32 0.66 2.64 1.32 4 2 C2.95779297 2.55107422 2.95779297 2.55107422 1.89453125 3.11328125 C-1.64934279 5.42325583 -4.37960564 8.16195041 -7.3125 11.1875 C-7.86228516 11.74630859 -8.41207031 12.30511719 -8.97851562 12.88085938 C-10.32363696 14.24937412 -11.66246643 15.62406833 -13 17 C-13.66 16.67 -14.32 16.34 -15 16 C-14.67 15.34 -14.34 14.68 -14 14 C-13.34 14 -12.68 14 -12 14 C-11.79375 13.46375 -11.5875 12.9275 -11.375 12.375 C-9.46749574 9.08021991 -6.95180616 6.40636372 -4 4 C-3.34 4 -2.68 4 -2 4 C-1.34 2.68 -0.68 1.36 0 0 Z " fill="#C4AC68" transform="translate(193,338)"/>
<path d="M0 0 C0.66 1.32 1.32 2.64 2 4 C0.73608512 5.00873016 -0.53640883 6.00671822 -1.8125 7 C-2.87404297 7.8353125 -2.87404297 7.8353125 -3.95703125 8.6875 C-6 10 -6 10 -9 10 C-8.67 8.68 -8.34 7.36 -8 6 C-6.68 6 -5.36 6 -4 6 C-4.33 4.35 -4.66 2.7 -5 1 C-3.35 0.67 -1.7 0.34 0 0 Z " fill="#E6E7E5" transform="translate(302,160)"/>
<path d="M0 0 C0.33 0 0.66 0 1 0 C1.02696009 2.7708983 1.04681952 5.5415345 1.0625 8.3125 C1.07087891 9.09818359 1.07925781 9.88386719 1.08789062 10.69335938 C1.09111328 11.45068359 1.09433594 12.20800781 1.09765625 12.98828125 C1.10289307 13.68477783 1.10812988 14.38127441 1.11352539 15.09887695 C1 17 1 17 0 20 C-0.66 20 -1.32 20 -2 20 C-2.3690205 6.3667426 -2.3690205 6.3667426 0 0 Z " fill="#555244" transform="translate(258,116)"/>
<path d="M0 0 C0.99 0.495 0.99 0.495 2 1 C2.33 1.99 2.66 2.98 3 4 C3.66 2.68 4.32 1.36 5 0 C5.93385816 2.80157448 6.16354595 4.65447803 6.1875 7.5625 C6.20167969 8.34753906 6.21585937 9.13257812 6.23046875 9.94140625 C6 12 6 12 4 14 C3.32739649 12.23141309 2.66211605 10.46003984 2 8.6875 C1.62875 7.70136719 1.2575 6.71523437 0.875 5.69921875 C0 3 0 3 0 0 Z " fill="#3B3A38" transform="translate(252,109)"/>
<path d="M0 0 C2.62187494 1.04874998 3.79371361 1.64931313 5.25 4.125 C5.4975 4.74375 5.745 5.3625 6 6 C5.01 6 4.02 6 3 6 C2.67 7.32 2.34 8.64 2 10 C0.68 8.35 -0.64 6.7 -2 5 C-1.34 3.35 -0.68 1.7 0 0 Z " fill="#363534" transform="translate(248,97)"/>
<path d="M0 0 C0.99 0.33 1.98 0.66 3 1 C2 4 2 4 0.14453125 5.1328125 C-4.23712835 6.99703618 -8.21252717 8.50897715 -13 9 C-13 8.34 -13 7.68 -13 7 C-12.39671875 6.74605469 -11.7934375 6.49210938 -11.171875 6.23046875 C-6.17400819 4.10718045 -6.17400819 4.10718045 -1.625 1.1875 C-1.08875 0.795625 -0.5525 0.40375 0 0 Z " fill="#62615C" transform="translate(303,164)"/>
<path d="M0 0 C0.99 0.33 1.98 0.66 3 1 C3.33 1.99 3.66 2.98 4 4 C2 7 2 7 -1.3125 7.875 C-5.35073984 8.01188949 -6.83609906 7.39689465 -10 5 C-7.36749612 3.68374806 -6.19820944 4.25186342 -3.375 4.9375 C-2.55773437 5.13214844 -1.74046875 5.32679688 -0.8984375 5.52734375 C-0.27195313 5.68332031 0.35453125 5.83929688 1 6 C0.67 4.02 0.34 2.04 0 0 Z " fill="#9A9899" transform="translate(176,330)"/>
<path d="M0 0 C0.99 0.66 1.98 1.32 3 2 C2.67 3.32 2.34 4.64 2 6 C0.35 5.67 -1.3 5.34 -3 5 C-2.67 6.65 -2.34 8.3 -2 10 C-2.99 9.67 -3.98 9.34 -5 9 C-5.6875 6.9375 -5.6875 6.9375 -6 5 C-4.02 3.35 -2.04 1.7 0 0 Z " fill="#1A1D1E" transform="translate(321,271)"/>
<path d="M0 0 C2.52775351 3.79163027 2.22443035 6.80874031 2.125 11.1875 C2.11597656 11.93708984 2.10695313 12.68667969 2.09765625 13.45898438 C2.07412578 15.30612654 2.03825561 17.15310412 2 19 C1.67 19 1.34 19 1 19 C0 13 -1 7 -2 1 C-1.34 0.67 -0.68 0.34 0 0 Z " fill="#5E5E5C" transform="translate(307,127)"/>
<path d="M0 0 C4.60238615 3.06825743 7.33750217 6.74262048 9 12 C8.67 12.99 8.34 13.98 8 15 C7.731875 14.195625 7.46375 13.39125 7.1875 12.5625 C6.795625 11.716875 6.40375 10.87125 6 10 C5.01 9.67 4.02 9.34 3 9 C2.87625 8.195625 2.7525 7.39125 2.625 6.5625 C2.315625 5.2940625 2.315625 5.2940625 2 4 C1.34 3.67 0.68 3.34 0 3 C0 2.01 0 1.02 0 0 Z " fill="#8A856D" transform="translate(307,124)"/>
<path d="M0 0 C2.00720923 0.28674418 4.0085944 0.61866701 6 1 C5.67 2.32 5.34 3.64 5 5 C3.35 5.33 1.7 5.66 0 6 C-0.38218767 4.34385343 -0.71395102 2.67542976 -1 1 C-0.67 0.67 -0.34 0.34 0 0 Z " fill="#1B1916" transform="translate(252,241)"/>
<path d="M0 0 C2.5 0.3125 2.5 0.3125 5 1 C5.33 1.66 5.66 2.32 6 3 C5.525625 3.45375 5.05125 3.9075 4.5625 4.375 C2.90972192 5.93258204 2.90972192 5.93258204 2 8 C1.34 8 0.68 8 0 8 C-0.38063221 5.6739143 -0.71269945 3.33944736 -1 1 C-0.67 0.67 -0.34 0.34 0 0 Z " fill="#151513" transform="translate(247,233)"/>
<path d="M0 0 C2.4375 0.6875 2.4375 0.6875 5 2 C5.9375 4.5 5.9375 4.5 6 7 C5.34 7.66 4.68 8.32 4 9 C3.67 7.68 3.34 6.36 3 5 C2.01 5.99 1.02 6.98 0 8 C-1.125 2.25 -1.125 2.25 0 0 Z " fill="#C7C4BA" transform="translate(306,147)"/>
<path d="M0 0 C4.875 0.875 4.875 0.875 6 2 C5.71269945 4.33944736 5.38063221 6.6739143 5 9 C4.01 8.67 3.02 8.34 2 8 C1.855625 7.05125 1.71125 6.1025 1.5625 5.125 C1.17064601 2.1065506 1.17064601 2.1065506 0 0 Z " fill="#39362C" transform="translate(234,258)"/>
<path d="M0 0 C0.33 1.98 0.66 3.96 1 6 C-0.98 6 -2.96 6 -5 6 C-4.625 3.5625 -4.625 3.5625 -4 1 C-2 0 -2 0 0 0 Z " fill="#F8F6F7" transform="translate(176,330)"/>
<path d="M0 0 C5.75 1.875 5.75 1.875 8 3 C4.93882432 5.62386487 4.26826873 6 0 6 C0 4.02 0 2.04 0 0 Z " fill="#312D20" transform="translate(229,239)"/>
<path d="M0 0 C1.32 1.65 2.64 3.3 4 5 C0.98968256 5.93423645 0.13349732 6.04449911 -3 5 C-3.6875 2.9375 -3.6875 2.9375 -4 1 C-2.68 0.67 -1.36 0.34 0 0 Z " fill="#171717" transform="translate(202,237)"/>
<path d="M0 0 C0.66 0 1.32 0 2 0 C2 0.99 2 1.98 2 3 C3.32 3 4.64 3 6 3 C6 3.66 6 4.32 6 5 C5.34 5 4.68 5 4 5 C4 5.99 4 6.98 4 8 C3.34 8 2.68 8 2 8 C2 7.34 2 6.68 2 6 C0.35 6.33 -1.3 6.66 -3 7 C-3 6.34 -3 5.68 -3 5 C-1.68 5 -0.36 5 1 5 C0.67 3.35 0.34 1.7 0 0 Z " fill="#D3D3D3" transform="translate(274,191)"/>
<path d="M0 0 C0.66 0 1.32 0 2 0 C1.5206753 4.31392226 0.2542015 6.16569547 -3 9 C-5 8 -5 8 -6 5 C-5.195625 4.54625 -4.39125 4.0925 -3.5625 3.625 C-0.91143428 2.25274335 -0.91143428 2.25274335 0 0 Z " fill="#3A3529" transform="translate(346,251)"/>
<path d="M0 0 C0.99 0 1.98 0 3 0 C3 0.66 3 1.32 3 2 C3.66 2.33 4.32 2.66 5 3 C4.67 4.65 4.34 6.3 4 8 C3.34 7.67 2.68 7.34 2 7 C2 6.34 2 5.68 2 5 C1.34 5 0.68 5 0 5 C0 3.35 0 1.7 0 0 Z " fill="#F5F5F5" transform="translate(156,317)"/>
<path d="M0 0 C0.99 0.33 1.98 0.66 3 1 C2.67 1.66 2.34 2.32 2 3 C1.34 3 0.68 3 0 3 C-0.66 4.32 -1.32 5.64 -2 7 C-2.99 6.67 -3.98 6.34 -5 6 C-3.63016497 2.83884224 -3.0109362 2.0072908 0 0 Z " fill="#262724" transform="translate(234,259)"/>
<path d="M0 0 C0 0.66 0 1.32 0 2 C-3.75 4 -3.75 4 -6 4 C-7.34882408 4.63474075 -8.6846659 5.29848848 -10 6 C-7.82304683 0.97626191 -5.41372848 -0.29263397 0 0 Z " fill="#151618" transform="translate(348,270)"/>
<path d="M0 0 C0.66 0.33 1.32 0.66 2 1 C2 2.65 2 4.3 2 6 C2.66 6.33 3.32 6.66 4 7 C3.01 7.66 2.02 8.32 1 9 C0.67 7.68 0.34 6.36 0 5 C-1.32 4.67 -2.64 4.34 -4 4 C-2.68 2.68 -1.36 1.36 0 0 Z " fill="#322E23" transform="translate(313,259)"/>
<path d="M0 0 C-1.65091778 4.29238623 -4.73754566 6.8793915 -8 10 C-8.66 9.67 -9.32 9.34 -10 9 C-3 0 -3 0 0 0 Z " fill="#C4AD68" transform="translate(130,111)"/>
<path d="M0 0 C0.66 0 1.32 0 2 0 C2.33 1.65 2.66 3.3 3 5 C2.01 5.66 1.02 6.32 0 7 C-0.99 6.01 -1.98 5.02 -3 4 C-1.625 2 -1.625 2 0 0 Z " fill="#121212" transform="translate(306,250)"/>
<path d="M0 0 C1.32 0.33 2.64 0.66 4 1 C4 2.32 4 3.64 4 5 C3.34 5.66 2.68 6.32 2 7 C0 2.25 0 2.25 0 0 Z " fill="#F3F3F1" transform="translate(166,323)"/>
<path d="M0 0 C1.32 0.66 2.64 1.32 4 2 C2.25 5.875 2.25 5.875 0 7 C0 6.34 0 5.68 0 5 C-0.66 4.67 -1.32 4.34 -2 4 C-1.34 2.68 -0.68 1.36 0 0 Z " fill="#201F1D" transform="translate(310,265)"/>
<path d="M0 0 C0.33 0 0.66 0 1 0 C1 1.65 1 3.3 1 5 C-0.65 5.33 -2.3 5.66 -4 6 C-4.99 4.68 -5.98 3.36 -7 2 C-5.33388095 1.957279 -3.66617115 1.95936168 -2 2 C-1.67 2.33 -1.34 2.66 -1 3 C-0.67 2.01 -0.34 1.02 0 0 Z " fill="#363123" transform="translate(207,240)"/>
<path d="M0 0 C0.66 0.33 1.32 0.66 2 1 C1.67 1.66 1.34 2.32 1 3 C1.66 3 2.32 3 3 3 C2.1875 4.9375 2.1875 4.9375 1 7 C0.01 7.33 -0.98 7.66 -2 8 C-2 6.35 -2 4.7 -2 3 C-1.34 3 -0.68 3 0 3 C0 2.01 0 1.02 0 0 Z " fill="#2A2924" transform="translate(235,263)"/>
<path d="M0 0 C0.66 0.33 1.32 0.66 2 1 C1.67 3.31 1.34 5.62 1 8 C-0.32 8.33 -1.64 8.66 -3 9 C-2.01 6.03 -1.02 3.06 0 0 Z " fill="#4D4C48" transform="translate(314,146)"/>
<path d="M0 0 C1.65 1.65 3.3 3.3 5 5 C3.02 5.99 3.02 5.99 1 7 C0.87625 6.360625 0.7525 5.72125 0.625 5.0625 C0.315625 4.0415625 0.315625 4.0415625 0 3 C-0.66 2.67 -1.32 2.34 -2 2 C-1.34 1.34 -0.68 0.68 0 0 Z " fill="#26231A" transform="translate(308,247)"/>
<path d="M0 0 C0.99 0.33 1.98 0.66 3 1 C3 2.98 3 4.96 3 7 C1.68 6.34 0.36 5.68 -1 5 C-0.67 3.35 -0.34 1.7 0 0 Z " fill="#979793" transform="translate(310,138)"/>
<path d="M0 0 C1.65 0.99 3.3 1.98 5 3 C4.67 3.66 4.34 4.32 4 5 C3.01 4.67 2.02 4.34 1 4 C0.01 4.33 -0.98 4.66 -2 5 C-2 2 -2 2 0 0 Z " fill="#373331" transform="translate(241,90)"/>
<path d="M0 0 C2.97 0.495 2.97 0.495 6 1 C4.71937515 2.7074998 3.38232443 4.37373596 2 6 C1.34 6 0.68 6 0 6 C0.185625 5.38125 0.37125 4.7625 0.5625 4.125 C1.23686176 1.95839822 1.23686176 1.95839822 0 0 Z " fill="#24251F" transform="translate(321,255)"/>
<path d="M0 0 C-0.33 0.99 -0.66 1.98 -1 3 C-3.06640625 3.73046875 -3.06640625 3.73046875 -5.5625 4.1875 C-6.38878906 4.34605469 -7.21507812 4.50460938 -8.06640625 4.66796875 C-9.02353516 4.83232422 -9.02353516 4.83232422 -10 5 C-10 4.34 -10 3.68 -10 3 C-3.375 0 -3.375 0 0 0 Z " fill="#747269" transform="translate(300,168)"/>
<path d="M0 0 C1.65 0 3.3 0 5 0 C5 0.66 5 1.32 5 2 C2 4 2 4 -1 4 C-0.67 2.68 -0.34 1.36 0 0 Z " fill="#DCDEDD" transform="translate(294,166)"/>
<path d="M0 0 C-0.99 1.485 -0.99 1.485 -2 3 C-3.9375 2.625 -3.9375 2.625 -6 2 C-6.33 1.34 -6.66 0.68 -7 0 C-4.3333581 -1.33332095 -2.83319697 -0.67102033 0 0 Z " fill="#22201F" transform="translate(241,90)"/>
<path d="M0 0 C0.66 0.33 1.32 0.66 2 1 C0.25 5.875 0.25 5.875 -2 7 C-2 5.02 -2 3.04 -2 1 C-1.34 0.67 -0.68 0.34 0 0 Z " fill="#3A3A35" transform="translate(303,269)"/>
<path d="M0 0 C1.32 0.99 2.64 1.98 4 3 C2.35 4.32 0.7 5.64 -1 7 C-0.67 5.35 -0.34 3.7 0 2 C-0.66 1.67 -1.32 1.34 -2 1 C-1.34 0.67 -0.68 0.34 0 0 Z " fill="#494434" transform="translate(333,263)"/>
<path d="" fill="#121212" transform="translate(0,0)"/>
<path d="" fill="#0F0F0F" transform="translate(0,0)"/>
<path d="" fill="#111113" transform="translate(0,0)"/>
<path d="" fill="#101010" transform="translate(0,0)"/>
<path d="" fill="#131313" transform="translate(0,0)"/>
<path d="" fill="#121214" transform="translate(0,0)"/>
</svg>
