<?xml version="1.0" encoding="UTF-8"?>
<svg version="1.1" xmlns="http://www.w3.org/2000/svg" width="457" height="451">
<path d="M0 0 C0.70660047 0.00322913 1.41320093 0.00645826 2.14121354 0.00978523 C4.50973503 0.02185071 6.87814007 0.04122749 9.24661255 0.06056213 C10.94547268 0.07070794 12.64433557 0.08040128 14.34320068 0.0896759 C18.96416572 0.11617222 23.58506747 0.14896913 28.20598364 0.1828258 C33.05903204 0.21727044 37.91211507 0.24580235 42.76519775 0.27493286 C51.98245225 0.33113325 61.19966531 0.39243442 70.41687405 0.4556542 C83.86535211 0.54765641 97.31388034 0.63169084 110.7624073 0.71617985 C112.76252368 0.72876043 114.76264003 0.74134604 116.76275635 0.75393677 C117.74139117 0.76009146 118.720026 0.76624616 119.72831643 0.77258736 C125.48330829 0.80894436 131.23828997 0.84656679 136.99326479 0.88552648 C139.71796108 0.90388167 142.44266036 0.92172831 145.16736031 0.93953037 C148.59261677 0.96202301 152.01784212 0.98697155 155.44306755 1.01375484 C162.3079604 1.0645494 169.16763992 1.09951997 176.03231812 0.99247742 C177.55435191 0.97292669 177.55435191 0.97292669 179.10713387 0.952981 C180.85492221 0.92642126 182.60261295 0.88779986 184.34969902 0.83158779 C197.42505283 0.63961118 208.29889621 6.82945527 217.62600708 15.5627594 C229.67178347 28.42621266 232.72634991 44.0581321 233.95022583 61.0315094 C234.02906509 62.04663101 234.10790436 63.06175262 234.18913269 64.1076355 C234.52112988 68.38477894 234.84013316 72.66286403 235.15994263 76.94093323 C236.19710837 90.69910205 237.53120138 104.36456185 239.33450317 118.04469299 C240.12493336 124.04851969 240.72915493 130.0308082 240.98538208 136.08229065 C241.01793091 136.74277405 241.05047974 137.40325745 241.08401489 138.08375549 C241.68068421 151.45457249 239.94227843 162.48744335 230.98538208 173.08229065 C222.57526725 181.0392743 212.2605244 185.4905154 200.72366333 185.28541565 C189.89925047 184.48246348 181.26300598 179.8999031 173.96194458 171.8518219 C169.98538208 166.72709699 169.98538208 166.72709699 169.98538208 164.08229065 C169.32538208 164.08229065 168.66538208 164.08229065 167.98538208 164.08229065 C167.98538208 163.09229065 167.98538208 162.10229065 167.98538208 161.08229065 C167.32538208 160.75229065 166.66538208 160.42229065 165.98538208 160.08229065 C165.98538208 159.09229065 165.98538208 158.10229065 165.98538208 157.08229065 C165.32538208 156.75229065 164.66538208 156.42229065 163.98538208 156.08229065 C161.36794247 153.15075828 160.6384973 150.90767981 159.98538208 147.08229065 C159.61413208 146.19541565 159.24288208 145.30854065 158.86038208 144.39479065 C158.42725708 143.25010315 158.42725708 143.25010315 157.98538208 142.08229065 C158.31538208 141.42229065 158.64538208 140.76229065 158.98538208 140.08229065 C158.32538208 139.75229065 157.66538208 139.42229065 156.98538208 139.08229065 C155.93730167 137.10706219 154.93334098 135.10747556 153.98538208 133.08229065 C151.00821994 133.08229065 149.2704878 133.57484406 146.48538208 134.51979065 C136.55454422 137.55541794 127.4497704 138.18888141 117.96975708 133.6330719 C111.7413059 130.21969656 107.09310311 126.9015621 102.98538208 121.08229065 C102.98538208 120.42229065 102.98538208 119.76229065 102.98538208 119.08229065 C99.27811982 118.84884716 95.57275088 118.70752719 91.86038208 118.58229065 C90.81366333 118.5152594 89.76694458 118.44822815 88.68850708 118.37916565 C82.8893805 118.11410125 82.8893805 118.11410125 78.00540161 120.80201721 C76.50433689 122.83153452 75.26267035 124.90856668 73.98538208 127.08229065 C66.11497024 134.61051067 58.04739006 137.45291503 47.16116333 137.3049469 C40.7153499 136.64532147 34.61828371 134.19520997 28.98538208 131.08229065 C28.61284302 132.28498596 28.24030396 133.48768127 27.85647583 134.7268219 C25.67768383 141.25553059 22.85130317 147.49026398 20.04788208 153.76979065 C19.52258911 154.96668518 18.99729614 156.16357971 18.45608521 157.39674377 C17.94110474 158.55496643 17.42612427 159.71318909 16.89553833 160.9065094 C16.20149902 162.4701825 16.20149902 162.4701825 15.49343872 164.06544495 C10.12494635 174.80503702 2.69957562 180.05711671 -8.20211792 184.33229065 C-22.00105003 187.04683467 -32.98973625 183.76557453 -44.50289917 176.0627594 C-52.40323112 169.83341524 -57.30968094 160.93351104 -59.01461792 151.08229065 C-59.48627117 143.22572115 -58.6237737 135.54647978 -57.58883667 127.76979065 C-57.28513256 125.38690627 -56.98150595 123.00401201 -56.677948 120.62110901 C-56.5183963 119.38907745 -56.3588446 118.1570459 -56.19445801 116.88768005 C-53.70390283 97.63770929 -51.29196738 78.41958191 -50.07785034 59.04127502 C-49.60862838 52.34733276 -48.70601073 45.98902189 -47.10055542 39.4846344 C-46.93755447 38.82398483 -46.77455353 38.16333527 -46.60661316 37.48266602 C-43.21729566 24.61672878 -33.36166883 12.91492346 -22.01461792 6.08229065 C-14.43138238 2.1956184 -8.55183169 -0.05605709 0 0 Z M168.98538208 21.08229065 C167.38411134 24.28483212 167.57836601 26.53543629 167.98538208 30.08229065 C170.17958653 33.74911554 172.83049883 36.3893607 176.48538208 38.58229065 C179.85397415 39.25600906 181.70662254 39.21981947 184.98538208 38.08229065 C188.28301069 35.55085365 190.55198723 32.88349196 191.53616333 28.79322815 C191.79268882 24.41030688 191.39688559 22.60208456 188.61038208 19.08229065 C184.66381456 16.07538207 182.18533029 15.69148453 177.31350708 15.72291565 C173.39533972 16.32773343 171.68179392 18.25105822 168.98538208 21.08229065 Z M-8.01461792 21.08229065 C-10.13387396 23.20154669 -9.43292809 27.70189995 -9.57711792 30.64479065 C-9.62030151 31.45109924 -9.66348511 32.25740784 -9.70797729 33.08815002 C-9.81437054 35.0859787 -9.9150268 37.08411135 -10.01461792 39.08229065 C-10.73907104 39.05908752 -11.46352417 39.0358844 -12.20993042 39.01197815 C-19.81244896 38.8403897 -19.81244896 38.8403897 -27.01461792 41.08229065 C-28.53952921 44.13211323 -28.15823226 47.30351604 -28.13961792 50.64479065 C-28.14348511 51.34281799 -28.14735229 52.04084534 -28.15133667 52.76002502 C-28.45384307 56.20977963 -28.45384307 56.20977963 -27.01461792 59.08229065 C-25.67194379 59.16860939 -24.3248747 59.18935538 -22.97946167 59.1799469 C-22.25106079 59.17744934 -21.52265991 59.17495178 -20.77218628 59.17237854 C-19.84156372 59.16327454 -18.91094116 59.15417053 -17.95211792 59.14479065 C-15.00274292 59.12416565 -12.05336792 59.10354065 -9.01461792 59.08229065 C-8.68461792 65.02229065 -8.35461792 70.96229065 -8.01461792 77.08229065 C-4.022522 77.74763997 -0.82738503 78.21963475 3.11038208 78.20729065 C4.35174927 78.21115784 4.35174927 78.21115784 5.61819458 78.21510315 C8.28813384 78.13963467 8.28813384 78.13963467 11.98538208 77.08229065 C12.31538208 71.47229065 12.64538208 65.86229065 12.98538208 60.08229065 C18.26538208 60.41229065 23.54538208 60.74229065 28.98538208 61.08229065 C29.64538208 59.43229065 30.30538208 57.78229065 30.98538208 56.08229065 C31.48038208 55.09229065 31.48038208 55.09229065 31.98538208 54.08229065 C32.27187679 48.35239643 31.89407323 45.8083641 29.98538208 40.08229065 C24.37538208 39.75229065 18.76538208 39.42229065 12.98538208 39.08229065 C12.54788208 30.64479065 12.54788208 30.64479065 12.41726685 27.98292542 C12.55850731 24.22258332 12.55850731 24.22258332 10.98538208 21.08229065 C4.57237558 20.17192695 -1.66533781 19.67133951 -8.01461792 21.08229065 Z M144.98538208 42.08229065 C142.68505036 45.78282428 142.75226394 48.9733727 143.46194458 53.15260315 C144.33542241 56.37273785 145.43925763 57.91808487 147.98538208 60.08229065 C152.38395571 61.90527364 155.72899517 62.48528268 160.29788208 61.01979065 C164.44309585 58.03138072 166.52112501 55.64915826 167.98538208 50.70729065 C167.98538208 46.15371323 166.93532231 43.52092579 163.98538208 40.08229065 C156.81852981 35.14512575 150.92793729 35.86333752 144.98538208 42.08229065 Z M192.11038208 43.39479065 C190.59761778 47.00861648 190.38143083 49.19016034 190.98538208 53.08229065 C193.10555141 56.35007458 195.46691603 59.32305762 198.98538208 61.08229065 C202.39378049 61.55886317 205.58223538 61.62187906 208.98538208 61.08229065 C212.52898802 58.38915013 213.64383122 56.98389814 214.41897583 52.66822815 C214.69997699 47.03117465 213.87016644 43.39871772 209.98538208 39.08229065 C203.42325575 34.27006468 196.73822176 37.68712171 192.11038208 43.39479065 Z M169.61038208 65.20729065 C167.34837506 69.20930307 167.16903018 72.5841917 167.98538208 77.08229065 C170.05183429 80.55097828 172.08730117 82.89121037 175.98538208 84.08229065 C180.78603318 84.54686979 183.02719973 84.56138182 187.36038208 82.39479065 C191.01249485 79.17745321 191.75514859 76.8857863 192.36038208 72.14479065 C191.86853846 68.12806778 190.58740558 66.16363426 187.98538208 63.08229065 C180.90730792 58.6584943 175.72806203 59.73357701 169.61038208 65.20729065 Z M40.98538208 92.08229065 C38.95071091 95.76407657 38.39005155 98.91497697 38.98538208 103.08229065 C42.57099045 108.27588369 42.57099045 108.27588369 47.98538208 111.08229065 C52.40941409 111.0018537 54.41991384 110.54941659 57.86038208 107.70729065 C61.19185834 103.59193762 61.43304868 100.27522326 60.98538208 95.08229065 C58.90628358 91.85610332 57.18498679 90.21536045 53.98538208 88.08229065 C48.18489092 87.5209528 45.12481831 87.57761005 40.98538208 92.08229065 Z M124.98538208 92.08229065 C122.4593831 95.57057496 122.47808531 98.87897458 122.98538208 103.08229065 C125.70147077 107.19522495 128.07561581 110.03019788 132.98538208 111.08229065 C137.28350089 111.00414303 139.65017889 110.28092958 143.36038208 108.08229065 C146.35120799 104.66420389 147.00900379 102.74227255 147.22366333 98.30104065 C146.83984399 94.72711634 145.35297934 92.70584437 142.98538208 90.08229065 C136.8509389 86.34772378 129.90828137 86.71185506 124.98538208 92.08229065 Z " fill="#FBD86E" transform="translate(129.01461791992188,144.91770935058594)"/>
<path d="M0 0 C2.97 0.33 5.94 0.66 9 1 C9.47648117 9.73548809 7.56777101 17.07790631 2 24 C-4.29435629 30.52324197 -11.14776916 35.05037931 -20.40869141 35.51416016 C-22.3894759 35.54159092 -24.37061312 35.54902341 -26.3515625 35.5390625 C-27.40983246 35.55085541 -28.46810242 35.56264832 -29.55844116 35.57479858 C-32.91411282 35.60986537 -36.26916059 35.61920908 -39.625 35.625 C-42.98779286 35.64138976 -46.35031132 35.66351166 -49.71298218 35.69662476 C-51.79756608 35.71612059 -53.88227541 35.72560432 -55.96694946 35.72354126 C-63.18135285 35.77630816 -70.17269895 36.27516131 -76 41 C-80.14994915 47.6615571 -80.64332032 53.25117605 -80.75 61 C-80.77964844 62.06089844 -80.80929688 63.12179688 -80.83984375 64.21484375 C-80.90998229 66.80996964 -80.96295402 69.4042265 -81 72 C-82.62324086 72.22162329 -84.248721 72.42689803 -85.875 72.625 C-86.77992188 72.74101562 -87.68484375 72.85703125 -88.6171875 72.9765625 C-89.79667969 72.98816406 -89.79667969 72.98816406 -91 73 C-93.67685351 70.32314649 -93.25888409 68.26674501 -93.27880859 64.62646484 C-93.26930176 63.78035645 -93.25979492 62.93424805 -93.25 62.0625 C-93.24178223 61.20092285 -93.23356445 60.3393457 -93.22509766 59.45166016 C-93.04174625 48.96908578 -92.38218306 40.05614033 -85 32 C-76.5038517 24.91734328 -68.82663286 23.71222841 -58.03125 23.69140625 C-55.66275787 23.66625462 -53.29426834 23.64085647 -50.92578125 23.61523438 C-47.20622384 23.5864635 -43.48671152 23.56243308 -39.76708984 23.54370117 C-36.16741184 23.52204504 -32.56824949 23.4826153 -28.96875 23.44140625 C-27.3044696 23.44123253 -27.3044696 23.44123253 -25.60656738 23.4410553 C-19.07752735 23.35741847 -14.34159537 22.87566486 -9.20703125 18.45703125 C-5.61672182 14.22308091 -3.66417802 10.26806024 -2 5 C-1.33933281 3.33094605 -0.67561748 1.6630584 0 0 Z " fill="#F3D26D" transform="translate(307,64)"/>
<path d="M0 0 C5.70061812 4.09214496 9.63632169 9.28311437 11.51171875 16.0625 C12.64941067 23.08026278 10.91437878 29.5431661 6.8828125 35.3515625 C1.83644121 41.14505889 -4.09156579 43.63926966 -11.59765625 44.703125 C-18.19820587 45.09199459 -22.90385501 43.37960868 -28.1171875 39.3515625 C-34.13840591 33.54498415 -36.27106838 29.6431301 -36.4921875 21.1640625 C-36.53046212 13.34577092 -34.78550134 9.23356453 -29.5078125 3.6484375 C-20.97076079 -4.41868475 -10.36833344 -5.83481113 0 0 Z M-22.1171875 13.3515625 C-24.64318648 16.83984681 -24.62448427 20.14824643 -24.1171875 24.3515625 C-21.40109881 28.4644968 -19.02695377 31.29946973 -14.1171875 32.3515625 C-9.81906869 32.27341489 -7.45239069 31.55020143 -3.7421875 29.3515625 C-0.75136159 25.93347574 -0.09356579 24.0115444 0.12109375 19.5703125 C-0.26272559 15.99638819 -1.74959024 13.97511622 -4.1171875 11.3515625 C-10.25163068 7.61699563 -17.19428821 7.98112691 -22.1171875 13.3515625 Z " fill="#2E2D2E" transform="translate(276.1171875,223.6484375)"/>
<path d="M0 0 C4.88325628 4.40469717 8.85252604 9.40504439 10 16 C10.24317351 22.61854871 8.87195639 28.57692855 5 34 C-0.39444826 39.77415457 -5.87131123 43.12618965 -13.875 43.4375 C-20.41044949 43.24337774 -24.84576977 41.83808871 -29.71484375 37.45703125 C-34.83053643 31.99112 -37.12224383 26.33975663 -37.3125 18.875 C-37.07655116 12.16584605 -35.17105347 7.29836522 -31 2 C-21.92496206 -6.38228695 -10.1339805 -7.03298247 0 0 Z M-23 12 C-25.03467117 15.68178592 -25.59533053 18.83268632 -25 23 C-21.41439163 28.19359304 -21.41439163 28.19359304 -16 31 C-11.57596799 30.91956305 -9.56546824 30.46712594 -6.125 27.625 C-2.79352374 23.50964697 -2.5523334 20.19293261 -3 15 C-5.0790985 11.77381267 -6.80039529 10.1330698 -10 8 C-15.80049116 7.43866215 -18.86056377 7.4953194 -23 12 Z " fill="#2D2D2C" transform="translate(193,225)"/>
<path d="M0 0 C0 0.66 0 1.32 0 2 C1.32 2.33 2.64 2.66 4 3 C4 3.66 4 4.32 4 5 C5.32 4.67 6.64 4.34 8 4 C8.33 4.99 8.66 5.98 9 7 C9.66 7 10.32 7 11 7 C11 7.99 11 8.98 11 10 C9.35178756 11.03013277 7.68496298 12.03114628 6 13 C6 13.66 6 14.32 6 15 C5.43152344 14.84273437 4.86304688 14.68546875 4.27734375 14.5234375 C0.49052388 13.65305352 -3.15253538 13.36791653 -7 14 C-9.98119541 16.22976163 -9.98119541 16.22976163 -12 19 C-12.66 19.66 -13.32 20.32 -14 21 C-14 20.34 -14 19.68 -14 19 C-14.66 18.67 -15.32 18.34 -16 18 C-15.979375 17.236875 -15.95875 16.47375 -15.9375 15.6875 C-15.87057159 12.89814214 -15.87057159 12.89814214 -17 10 C-17.03874921 8.33378384 -17.0450286 6.66605828 -17 5 C-10.90780805 1.36811634 -7.19074519 -0.16342603 0 0 Z " fill="#353434" transform="translate(266,220)"/>
<path d="M0 0 C2.98265972 1.2692169 4.46127474 2.10212457 6.125 4.875 C6 7 6 7 4.125 9.75 C0.47718985 12.37642331 -1.46015535 12.68489068 -5.84375 12.421875 C-9.14144631 11.77667355 -10.82157423 10.51880479 -13 8 C-13.8125 5.25 -13.8125 5.25 -14 3 C-8.96652223 -0.02008666 -5.72319081 -0.54506579 0 0 Z " fill="#302F2E" transform="translate(243,188)"/>
<path d="M0 0 C1.051875 -0.00515625 2.10375 -0.0103125 3.1875 -0.015625 C6 0.25 6 0.25 9 2.25 C9.1875 5.875 9.1875 5.875 9 9.25 C6.04497399 10.94242399 3.90004978 11.52328801 0.5 11.5 C-0.2528125 11.50515625 -1.005625 11.5103125 -1.78125 11.515625 C-4.31321045 11.21250297 -5.8947868 10.69384091 -8 9.25 C-8.75 5.625 -8.75 5.625 -9 2.25 C-5.53767506 -0.05821663 -4.08201684 -0.02000989 0 0 Z " fill="#30302F" transform="translate(199,187.75)"/>
<path d="M0 0 C0 3.50758668 -0.98036787 4.78750719 -3.2421875 7.37890625 C-10.87171883 14.41502959 -19.37284105 17.47452162 -29.5703125 17.32421875 C-36.80973242 16.63985445 -42.89049849 13.80752862 -49 10 C-48.67 9.34 -48.34 8.68 -48 8 C-47.40832031 8.20496094 -46.81664062 8.40992188 -46.20703125 8.62109375 C-45.41683594 8.89050781 -44.62664062 9.15992188 -43.8125 9.4375 C-42.64654297 9.83775391 -42.64654297 9.83775391 -41.45703125 10.24609375 C-29.76215416 13.83450596 -18.93788417 12.34976417 -8 7 C-5.04254557 4.90116137 -2.46509873 2.65648838 0 0 Z " fill="#262622" transform="translate(358,307)"/>
<path d="M0 0 C2.5 1.375 2.5 1.375 5 3 C5 3.66 5 4.32 5 5 C16.53454066 10.99688062 28.87286537 13.41709578 41.5625 9.5625 C42.72072266 9.15257812 42.72072266 9.15257812 43.90234375 8.734375 C46.55823891 7.8045644 49.21581901 7.3663396 52 7 C49.45579765 10.01078617 46.68308065 11.16602683 43.0625 12.625 C42.02222656 13.05039062 40.98195312 13.47578125 39.91015625 13.9140625 C31.19789072 17.16508239 23.74920805 16.53876857 15.01171875 13.40625 C8.8759444 10.541297 2.6689611 6.42846544 0 0 Z " fill="#45433B" transform="translate(82,308)"/>
<path d="M0 0 C1.92089844 0.69433594 1.92089844 0.69433594 4 2 C4.82128906 4.17285156 4.82128906 4.17285156 5.265625 6.890625 C5.43352539 7.90068604 5.60142578 8.91074707 5.77441406 9.95141602 C5.93135742 11.03994873 6.08830078 12.12848145 6.25 13.25 C6.50475098 14.91276978 6.50475098 14.91276978 6.76464844 16.60913086 C8.29433263 27.43156959 8.38977296 38.09718425 8 49 C7.67 49 7.34 49 7 49 C6.82609741 47.83428467 6.82609741 47.83428467 6.64868164 46.64501953 C6.12346637 43.13780988 5.59305049 39.63140636 5.0625 36.125 C4.78889648 34.29001953 4.78889648 34.29001953 4.50976562 32.41796875 C4.33251953 31.25136719 4.15527344 30.08476562 3.97265625 28.8828125 C3.81031494 27.80402832 3.64797363 26.72524414 3.48071289 25.61376953 C3.13067566 23.02964208 3.13067566 23.02964208 2 21 C1.60391538 18.39509312 1.25182912 15.80225262 0.9375 13.1875 C0.84662109 12.47529297 0.75574219 11.76308594 0.66210938 11.02929688 C0.20725422 7.33231627 -0.10978208 3.72527191 0 0 Z " fill="#5B5C56" transform="translate(349,226)"/>
<path d="M0 0 C0.495 1.485 0.495 1.485 1 3 C-10.27196275 7.77297173 -22.87578649 11.78662218 -34.875 7.1875 C-37.46084236 5.97346892 -38.96624353 5.03375647 -41 3 C-37.36918408 3.4445897 -34.00599559 3.99817991 -30.5 5.0625 C-20.21246097 7.81809081 -9.05239105 5.2225333 0 0 Z " fill="#2D2E28" transform="translate(136,305)"/>
<path d="M0 0 C2.5 1.375 2.5 1.375 5 3 C5 3.66 5 4.32 5 5 C8.87058987 7.17975324 13.02352055 8.34062815 17.25 9.625 C17.99507812 9.85445313 18.74015625 10.08390625 19.5078125 10.3203125 C21.3375871 10.88332007 23.16866703 11.44208228 25 12 C25 12.66 25 13.32 25 14 C15.89508955 14.65035075 10.83632321 11.75915926 4 5.875 C1.6875 3.8046875 1.6875 3.8046875 0 2 C0 1.34 0 0.68 0 0 Z " fill="#312F29" transform="translate(82,308)"/>
<path d="M0 0 C0.66 0 1.32 0 2 0 C0.09497388 6.30124026 -1.37823864 10.29265666 -7.25 13.5625 C-8.0440625 13.96855469 -8.838125 14.37460937 -9.65625 14.79296875 C-11.77741929 15.88537094 -13.74101155 17.09294816 -15.75 18.375 C-19 20 -19 20 -21.9375 19.75 C-22.618125 19.5025 -23.29875 19.255 -24 19 C-21.46255491 15.92006665 -18.89477969 15.12811362 -15.125 14 C-7.8030295 11.93946827 -7.8030295 11.93946827 -2.63671875 6.73828125 C-2.32347656 5.93777344 -2.01023437 5.13726562 -1.6875 4.3125 C-1.36136719 3.50425781 -1.03523438 2.69601562 -0.69921875 1.86328125 C-0.46847656 1.24839844 -0.23773438 0.63351562 0 0 Z " fill="#504D40" transform="translate(362,292)"/>
<path d="M0 0 C0.33 0 0.66 0 1 0 C2.25406138 5.78645644 2.11186913 11.48868116 2.0625 17.375 C2.05798828 18.39722656 2.05347656 19.41945313 2.04882812 20.47265625 C2.037103 22.98183194 2.02069176 25.4908849 2 28 C1.67 28 1.34 28 1 28 C0.49599549 25.08397391 -0.00334666 22.16727908 -0.5 19.25 C-0.64308594 18.425 -0.78617187 17.6 -0.93359375 16.75 C-1.06894531 15.95078125 -1.20429688 15.1515625 -1.34375 14.328125 C-1.46943359 13.5949707 -1.59511719 12.86181641 -1.72460938 12.10644531 C-2 10 -2 10 -2 6 C-1.34 6 -0.68 6 0 6 C0 4.02 0 2.04 0 0 Z " fill="#565D5E" transform="translate(355,247)"/>
<path d="M0 0 C0.33 0 0.66 0 1 0 C-0.09621993 23.09621993 -0.09621993 23.09621993 -5 28 C-4.66815916 18.16091922 -2.7863603 9.36994648 0 0 Z " fill="#B4A47B" transform="translate(87,246)"/>
<path d="M0 0 C0.59425781 0.144375 1.18851562 0.28875 1.80078125 0.4375 C8.28732452 1.89016288 14.36613186 2.2270145 21 2 C20.67 2.99 20.34 3.98 20 5 C13.35590042 5.21432579 7.46794133 4.51233701 1 3 C0.67 2.01 0.34 1.02 0 0 Z " fill="#555043" transform="translate(314,309)"/>
<path d="M0 0 C4.95 1.32 9.9 2.64 15 4 C15.33 5.32 15.66 6.64 16 8 C9.68368172 7.59683075 5.35006016 5.28767869 0 2 C0 1.34 0 0.68 0 0 Z " fill="#32322B" transform="translate(309,315)"/>
<path d="M0 0 C1.98 0.99 1.98 0.99 4 2 C4 6.29 4 10.58 4 15 C0.96582331 10.95443108 0.59473757 9.99159125 0.3125 5.25 C0.24675781 4.26515625 0.18101562 3.2803125 0.11328125 2.265625 C0.07589844 1.51796875 0.03851563 0.7703125 0 0 Z " fill="#494844" transform="translate(349,226)"/>
<path d="M0 0 C4.84800613 0.5936334 9.31646354 1.63751667 14 3 C15.99488234 3.36270588 17.9937811 3.70640699 20 4 C18 6 18 6 15.8984375 6.1171875 C9.72651053 5.52483538 5.38103385 4.08911203 0 1 C0 0.67 0 0.34 0 0 Z " fill="#3F3E39" transform="translate(95,308)"/>
<path d="M0 0 C3.63 0.33 7.26 0.66 11 1 C10.34 2.32 9.68 3.64 9 5 C6.03 5 3.06 5 0 5 C0 3.35 0 1.7 0 0 Z " fill="#C4C4C0" transform="translate(208,191)"/>
<path d="M0 0 C2.34914492 2.34914492 2.73140357 3.95679446 3.625 7.125 C3.88539063 8.03507813 4.14578125 8.94515625 4.4140625 9.8828125 C4.70410156 10.93082031 4.70410156 10.93082031 5 12 C4.01 12.33 3.02 12.66 2 13 C-0.40385693 8.79325038 -1.45226612 5.86186074 -1 1 C-0.67 0.67 -0.34 0.34 0 0 Z " fill="#42403D" transform="translate(241,245)"/>
<path d="M0 0 C-0.33 0.99 -0.66 1.98 -1 3 C-2.95766281 3.08082094 -4.91626728 3.13910778 -6.875 3.1875 C-8.51082031 3.23970703 -8.51082031 3.23970703 -10.1796875 3.29296875 C-11.11039062 3.19628906 -12.04109375 3.09960938 -13 3 C-13.66 2.01 -14.32 1.02 -15 0 C-12.87562788 -0.19448477 -10.75046809 -0.38038289 -8.625 -0.5625 C-7.44164062 -0.66691406 -6.25828125 -0.77132813 -5.0390625 -0.87890625 C-2 -1 -2 -1 0 0 Z " fill="#212320" transform="translate(338,320)"/>
<path d="M0 0 C0.33 0 0.66 0 1 0 C1.95261487 4.76307437 2.08333357 9.1666528 2 14 C1.67 14 1.34 14 1 14 C0.67 12.35 0.34 10.7 0 9 C-0.99 9.495 -0.99 9.495 -2 10 C-2 8.68 -2 7.36 -2 6 C-1.34 6 -0.68 6 0 6 C0 4.02 0 2.04 0 0 Z " fill="#757160" transform="translate(355,247)"/>
<path d="M0 0 C0 4.38968456 -2.12805101 5.76905739 -5 9 C-5.99 8.34 -6.98 7.68 -8 7 C-5.36 4.69 -2.72 2.38 0 0 Z " fill="#38372E" transform="translate(358,307)"/>
<path d="M0 0 C6.52307692 2.33846154 6.52307692 2.33846154 8.9375 5.6875 C9.288125 6.450625 9.63875 7.21375 10 8 C6.01328937 6.63312778 3.11505367 4.84804907 0 2 C0 1.34 0 0.68 0 0 Z " fill="#B6A675" transform="translate(83,299)"/>
<path d="M0 0 C-1 1.5 -1 1.5 -3 3 C-5.71846235 3.27345479 -8.25677199 3.13491285 -11 3 C-7.72430636 -0.27569364 -4.48909309 -0.12469703 0 0 Z " fill="#1A1A18" transform="translate(118,320)"/>
<path d="M0 0 C0.33 0 0.66 0 1 0 C0.56179109 4.55737263 0.14958831 7.57653445 -3 11 C-3.32434322 6.35108046 -2.776422 3.77593392 0 0 Z " fill="#BCB290" transform="translate(362,297)"/>
<path d="M0 0 C7.42857143 -0.28571429 7.42857143 -0.28571429 11 2 C10.67 2.66 10.34 3.32 10 4 C9.01 4 8.02 4 7 4 C7 3.34 7 2.68 7 2 C4.69 1.67 2.38 1.34 0 1 C0 0.67 0 0.34 0 0 Z " fill="#1E1D1D" transform="translate(263,221)"/>
<path d="M0 0 C-0.33 0.33 -0.66 0.66 -1 1 C-0.34 1.66 0.32 2.32 1 3 C-2.375 3.125 -2.375 3.125 -6 3 C-6.66 2.34 -7.32 1.68 -8 1 C-4.93251126 -0.86240388 -3.40254489 -1.2151946 0 0 Z " fill="#292928" transform="translate(201,196)"/>
<path d="M0 0 C0.66 0 1.32 0 2 0 C2 0.66 2 1.32 2 2 C-0.57213134 3.61949011 -1.67669159 4.04408751 -4.75 3.625 C-5.4925 3.41875 -6.235 3.2125 -7 3 C-6.67 2.34 -6.34 1.68 -6 1 C-4.7934375 1.0309375 -4.7934375 1.0309375 -3.5625 1.0625 C-1.06645115 1.29633621 -1.06645115 1.29633621 0 0 Z " fill="#20211D" transform="translate(345,308)"/>
<path d="M0 0 C0.99 0.33 1.98 0.66 3 1 C3 3.31 3 5.62 3 8 C2.34 8 1.68 8 1 8 C0.67 5.36 0.34 2.72 0 0 Z " fill="#31302F" transform="translate(349,226)"/>
<path d="M0 0 C0.33 0 0.66 0 1 0 C1.33 2.97 1.66 5.94 2 9 C-0.475 10.485 -0.475 10.485 -3 12 C-2.01 8.04 -1.02 4.08 0 0 Z " fill="#6A6A6A" transform="translate(190,241)"/>
<path d="M0 0 C2.31 0.66 4.62 1.32 7 2 C4.38058783 3.74627478 2.96175123 4.38722388 0 5 C0 3.35 0 1.7 0 0 Z " fill="#A5A5A3" transform="translate(208,191)"/>
<path d="M0 0 C3.3 0.99 6.6 1.98 10 3 C9.01 3.66 8.02 4.32 7 5 C3.875 4.3125 3.875 4.3125 1 3 C0.67 2.01 0.34 1.02 0 0 Z " fill="#3D3A32" transform="translate(309,315)"/>
<path d="M0 0 C2.625 -0.1875 2.625 -0.1875 5 0 C4.67 0.99 4.34 1.98 4 3 C2.02 3 0.04 3 -2 3 C-1.34 2.01 -0.68 1.02 0 0 Z " fill="#32312F" transform="translate(330,311)"/>
<path d="M0 0 C6.52307692 0.61538462 6.52307692 0.61538462 8.9375 2.5625 C9.288125 3.036875 9.63875 3.51125 10 4 C5.78087253 3.5205537 3.20336822 2.83374881 0 0 Z " fill="#25251F" transform="translate(95,308)"/>
<path d="M0 0 C0.66 0 1.32 0 2 0 C2 2.64 2 5.28 2 8 C1.34 8 0.68 8 0 8 C-1.125 2.25 -1.125 2.25 0 0 Z " fill="#4D5055" transform="translate(353,245)"/>
<path d="M0 0 C1.98 0.99 1.98 0.99 4 2 C2.25 5.875 2.25 5.875 0 7 C0 4.69 0 2.38 0 0 Z " fill="#19191B" transform="translate(277,240)"/>
<path d="M0 0 C0.66 0 1.32 0 2 0 C3.80411967 2.75924185 4.0127245 3.88972103 3.625 7.25 C3.41875 8.1575 3.2125 9.065 3 10 C2.67 10 2.34 10 2 10 C1.34 6.7 0.68 3.4 0 0 Z " fill="#545456" transform="translate(274,236)"/>
<path d="" fill="#D9D9DB" transform="translate(0,0)"/>
<path d="" fill="#121212" transform="translate(0,0)"/>
</svg>
