<?xml version="1.0" encoding="UTF-8"?>
<svg version="1.1" xmlns="http://www.w3.org/2000/svg" width="439" height="500">
<path d="M0 0 C3.38939556 2.13679285 4.72582557 3.1774767 6 7 C6.09012315 8.55150027 6.12510947 10.10652918 6.12597656 11.66064453 C6.13168671 13.0795549 6.13168671 13.0795549 6.13751221 14.52713013 C6.13853943 15.55200531 6.13956665 16.57688049 6.140625 17.6328125 C6.1589809 19.82422891 6.17855369 22.0156354 6.19921875 24.20703125 C6.22794442 27.64486109 6.24999382 31.0820627 6.25048828 34.52001953 C6.27724901 60.81817218 12.25709566 82.11205797 30 102 C43.81502582 115.66715857 61.74303991 123.29241187 81.125 123.4375 C99.96222379 123.15484448 116.71236364 116.46171174 130.5625 103.625 C131.7690625 102.325625 131.7690625 102.325625 133 101 C133.52078125 100.46117187 134.0415625 99.92234375 134.578125 99.3671875 C154.7540727 77.6462348 156.38328225 52.89841026 155.80810547 24.72314453 C155.74786321 21.56540676 155.71224583 18.40812695 155.6796875 15.25 C155.63930862 13.79533325 155.63930862 13.79533325 155.59811401 12.3112793 C155.54794433 5.61501003 155.54794433 5.61501003 157.89501953 2.421875 C161.83081111 -0.23667872 165.31691296 -0.74720869 170 0 C173.24338743 1.88706178 175.43637586 3.25276517 176.625 6.9375 C177.06801126 9.86137434 177.16533701 12.27110723 176.50756836 15.17089844 C175.89438583 18.58867583 175.83634118 21.85552751 175.7890625 25.328125 C175.76342873 26.77459149 175.73694913 28.22104319 175.7097168 29.66748047 C175.69645355 30.41688904 175.68319031 31.16629761 175.66952515 31.93841553 C175.42750195 44.50338416 175.18096273 56.76552795 172 69 C171.74605469 70.01320313 171.49210938 71.02640625 171.23046875 72.0703125 C167.41485685 85.13747656 160.21573226 98.0176493 151 108 C150.11699219 108.97453125 149.23398437 109.9490625 148.32421875 110.953125 C141.36380903 118.40072819 133.85855902 123.9977486 125 129 C123.85402344 129.6496875 122.70804688 130.299375 121.52734375 130.96875 C112.13776416 135.96523429 101.79507008 140.18487462 91 140 C91.01474869 140.59833145 91.02949738 141.1966629 91.04469299 141.81312561 C91.19750284 148.05877901 91.34216937 154.30458391 91.48217773 160.55053711 C91.53544039 162.87936155 91.5907566 165.20814 91.64819336 167.53686523 C91.73054486 170.89036137 91.80543117 174.24395531 91.87890625 177.59765625 C91.90594131 178.63334244 91.93297638 179.66902863 91.96083069 180.73609924 C92.067927 185.96127771 91.93699352 190.85442279 91 196 C92.1144751 195.96447021 93.2289502 195.92894043 94.37719727 195.89233398 C98.53490267 195.76139268 102.69281337 195.63843765 106.85083008 195.51782227 C108.64614275 195.46464338 110.44139371 195.40933496 112.23657227 195.35180664 C114.82554828 195.26921795 117.41465377 195.1944369 120.00390625 195.12109375 C121.19651817 195.08054115 121.19651817 195.08054115 122.41322327 195.03916931 C127.03819321 194.91691545 131.49039838 194.83987502 136 196 C138.85304467 198.77708576 139.9227391 200.34096455 140.390625 204.33203125 C140.34421875 205.48058594 140.2978125 206.62914062 140.25 207.8125 C140.21390625 208.97394531 140.1778125 210.13539063 140.140625 211.33203125 C140.09421875 212.21246094 140.0478125 213.09289062 140 214 C125.0404421 214.07001752 110.08089687 214.12295249 95.1212101 214.15543652 C88.17547765 214.17091895 81.22984688 214.19203455 74.28417969 214.22631836 C67.58633392 214.25936323 60.88861583 214.27683304 54.19068527 214.28463173 C51.63010363 214.29019228 49.06952805 214.30104998 46.50899124 214.31719017 C42.93376205 214.33883837 39.35897515 214.34197218 35.78369141 214.34057617 C34.71554703 214.351362 33.64740265 214.36214783 32.54689026 214.3732605 C31.57651321 214.36913651 30.60613617 214.36501251 29.60635376 214.36076355 C28.7601478 214.36352893 27.91394184 214.36629431 27.04209328 214.36914349 C26.3682025 214.24732614 25.69431171 214.12550879 25 214 C22.30706598 209.96059897 22.3290303 206.7452917 23 202 C25.92086331 196.35971223 25.92086331 196.35971223 30 195 C31.36592183 194.91432754 32.73564858 194.88226353 34.10424805 194.88647461 C34.93629761 194.88659546 35.76834717 194.88671631 36.62561035 194.88684082 C37.49552612 194.89195679 38.36544189 194.89707275 39.26171875 194.90234375 C40.46616638 194.90385437 40.46616638 194.90385437 41.69494629 194.90539551 C44.69247873 194.91062483 47.68999081 194.92458611 50.6875 194.9375 C60.7421875 194.9684375 60.7421875 194.9684375 71 195 C71 177.18 71 159.36 71 141 C63.74 139.02 56.48 137.04 49 135 C23.48653765 124.03553684 4.59997614 104.12175389 -5.75390625 78.45703125 C-11.35299295 62.92351486 -12.26333481 49.13700742 -12.35009766 32.81152344 C-12.36672591 30.51682441 -12.39410483 28.2221786 -12.43212891 25.92773438 C-12.48680717 22.60519793 -12.50874863 19.28386271 -12.5234375 15.9609375 C-12.54610687 14.93688812 -12.56877625 13.91283875 -12.59213257 12.85775757 C-12.57799833 8.10650569 -12.56349905 5.76706739 -9.68603516 1.85009766 C-6.1443553 -0.58935426 -4.22051776 -0.6782975 0 0 Z " fill="#F7D56D" transform="translate(137,176)"/>
<path d="M0 0 C11.14647889 9.01781105 18.83492137 23.1270355 20.5625 37.2578125 C20.63973923 39.67216123 20.67052347 42.08834457 20.66015625 44.50390625 C20.6587413 45.15988297 20.65732635 45.81585968 20.65586853 46.49171448 C20.65033031 48.55962952 20.63779002 50.62743092 20.625 52.6953125 C20.61997699 54.10872238 20.6154155 55.52213398 20.61132812 56.93554688 C20.60038126 60.37633818 20.58316038 63.81706422 20.5625 67.2578125 C2.67006638 68.11128315 -15.19646334 68.41858245 -33.10693359 68.38818359 C-36.51711409 68.38246404 -39.92721682 68.38588694 -43.33739471 68.39163589 C-59.06503489 68.41394148 -74.73422904 68.16416748 -90.4375 67.2578125 C-90.48751046 63.16849568 -90.52350357 59.07930109 -90.54736328 54.98974609 C-90.55732603 53.60299574 -90.57090118 52.21626585 -90.58837891 50.82958984 C-90.76688952 36.28622517 -89.2303659 24.22587998 -80.4375 12.2578125 C-79.91800781 11.50757812 -79.39851562 10.75734375 -78.86328125 9.984375 C-71.08907937 -0.60940115 -59.6436731 -8.61769577 -46.66015625 -11.3203125 C-28.93820993 -13.64027638 -14.62513591 -10.45322214 0 0 Z " fill="#F8D56D" transform="translate(253.4375,100.7421875)"/>
<path d="M0 0 C1.21538405 0.00138269 1.21538405 0.00138269 2.45532131 0.00279331 C3.38225292 0.00141865 4.30918453 0.00004398 5.26420498 -0.00137234 C6.80168392 0.00402058 6.80168392 0.00402058 8.37022305 0.00952244 C9.97978123 0.0093034 9.97978123 0.0093034 11.62185574 0.00907993 C15.18765656 0.00977959 18.75340589 0.01757445 22.31919765 0.02539158 C24.78399534 0.02725557 27.24879339 0.02867956 29.71359158 0.0296793 C36.21558045 0.03350596 42.71754716 0.0433375 49.21952724 0.05438328 C55.84844957 0.06513035 62.47737833 0.06917624 69.10630703 0.0742197 C82.12389464 0.08495964 95.14146685 0.10184686 108.1590414 0.12304783 C108.21359264 2.78999731 108.25297532 5.45580281 108.2840414 8.12304783 C108.30079922 8.86683689 108.31755703 9.61062595 108.33482265 10.37695408 C108.46277199 25.09112724 101.0908926 39.35177705 90.9246664 49.72070408 C83.11226615 56.50689922 74.13820784 61.40400529 64.1590414 64.12304783 C62.72044765 64.52910252 62.72044765 64.52910252 61.2527914 64.94336033 C48.98323506 67.63894468 34.36420438 64.63074636 23.7059164 57.99414158 C11.11660545 48.74524595 1.8991099 37.67060531 -1.8409586 22.12304783 C-2.1174625 21.0189658 -2.1174625 21.0189658 -2.39955235 19.89257908 C-2.98544202 16.21651027 -2.98598306 12.58424863 -2.9659586 8.87304783 C-2.96982578 8.14086033 -2.97369297 7.40867283 -2.97767735 6.65429783 C-2.96572166 0.19822587 -2.96572166 0.19822587 0 0 Z " fill="#FAD76E" transform="translate(165.84095859527588,211.87695217132568)"/>
<path d="M0 0 C37.29 0 74.58 0 113 0 C113 6.93 113 13.86 113 21 C75.71 21 38.42 21 0 21 C0 14.07 0 7.14 0 0 Z " fill="#F4D26C" transform="translate(162,179)"/>
<path d="M0 0 C0.66 0.33 1.32 0.66 2 1 C1.51421457 4.12290635 1.0013988 6.99580359 0 10 C-0.66 10 -1.32 10 -2 10 C-1.76410156 10.51046875 -1.52820313 11.0209375 -1.28515625 11.546875 C-0.84819131 15.30597062 -2.70303215 18.03584489 -4.4375 21.25 C-4.77587891 21.8996875 -5.11425781 22.549375 -5.46289062 23.21875 C-6.29786887 24.81814494 -7.14753114 26.40985859 -8 28 C-8.66 28 -9.32 28 -10 28 C-10.20625 28.5775 -10.4125 29.155 -10.625 29.75 C-12.51625222 32.84477636 -14.90035937 34.1918763 -18 36 C-18.66 36 -19.32 36 -20 36 C-20.33 36.66 -20.66 37.32 -21 38 C-23.5625 38.625 -23.5625 38.625 -26 39 C-23.3234047 36.79574504 -20.68176537 34.79804341 -17.75 32.9375 C-14.74644659 31.22833883 -14.74644659 31.22833883 -14 28 C-12.04402816 26.60287726 -10.04563599 25.26220093 -8 24 C-8.33 22.68 -8.66 21.36 -9 20 C-8.01 19.67 -7.02 19.34 -6 19 C-5.46160439 17.14926508 -4.94134527 15.29042092 -4.53515625 13.40625 C-3.94493622 10.75241397 -3.21246256 8.1681712 -2.4375 5.5625 C-2.18871094 4.71816406 -1.93992187 3.87382812 -1.68359375 3.00390625 C-1 1 -1 1 0 0 Z " fill="#3F3D35" transform="translate(263,225)"/>
<path d="M0 0 C2.475 0.99 2.475 0.99 5 2 C4.39254603 6.85963179 2.27241033 10.7405518 0 15 C-1.875 14.6875 -1.875 14.6875 -4 14 C-6.35048538 10.47427193 -6.66397817 9.14986355 -6 5 C-4.16398307 2.95049272 -2.27017391 1.60803985 0 0 Z " fill="#1A1A19" transform="translate(204,119)"/>
<path d="M0 0 C1.30710938 0.2165625 1.30710938 0.2165625 2.640625 0.4375 C14.19299711 2.23786968 24.59362752 2.82635778 36 0 C36 0.99 36 1.98 36 3 C24.74106994 7.77651578 12.48420222 6.98097167 1 3 C0.67 2.01 0.34 1.02 0 0 Z " fill="#2C2C29" transform="translate(199,265)"/>
<path d="M0 0 C2.4375 0.4375 2.4375 0.4375 4.4375 2.4375 C4.30015864 6.21438741 4.20985941 8.58524134 1.625 11.4375 C-0.5625 12.4375 -0.5625 12.4375 -2.8125 12.125 C-3.39 11.898125 -3.9675 11.67125 -4.5625 11.4375 C-5.46327361 7.91629408 -5.77936761 5.99171722 -4.4375 2.5625 C-2.5625 0.4375 -2.5625 0.4375 0 0 Z " fill="#0B0A09" transform="translate(249.5625,121.5625)"/>
<path d="M0 0 C3.11875698 0.15993626 4.57800441 0.60613745 6.875 2.75 C8.30769581 5.61539161 7.97242524 7.00168883 7 10 C6.67 10.33 6.34 10.66 6 11 C-0.72 10.28 -0.72 10.28 -2 9 C-2.1875 5.5625 -2.1875 5.5625 -2 2 C-1.34 1.34 -0.68 0.68 0 0 Z " fill="#211F20" transform="translate(183,134)"/>
<path d="M0 0 C3.0625 0.1875 3.0625 0.1875 5.0625 2.1875 C4.60795455 7.64204545 4.60795455 7.64204545 2.0625 10.1875 C-0.4375 10 -0.4375 10 -2.9375 9.1875 C-4.9375 6.1875 -4.9375 6.1875 -4.625 3.5625 C-3.63731654 0.1505026 -3.65603948 0.23336422 0 0 Z " fill="#13120F" transform="translate(220.9375,148.8125)"/>
<path d="M0 0 C2.81532759 0.21656366 4.55531511 0.68872057 6.875 2.3125 C8 4 8 4 7.8125 6.0625 C7 8 7 8 5 10 C2.5 10.25 2.5 10.25 0 10 C-2 8 -2 8 -2.25 5 C-2 2 -2 2 0 0 Z " fill="#13110E" transform="translate(231,135)"/>
<path d="M0 0 C0.33 2.31 0.66 4.62 1 7 C-2 9 -2 9 -4.5625 8.8125 C-7 8 -7 8 -9 5 C-8.75 2.375 -8.75 2.375 -8 0 C-5.13822943 -1.43088528 -3.06624227 -0.59991697 0 0 Z " fill="#1C1A17" transform="translate(225,125)"/>
<path d="M0 0 C2.5625 0.3125 2.5625 0.3125 4.4375 1.5 C5.5625 3.3125 5.5625 3.3125 5.375 5.875 C4.5625 8.3125 4.5625 8.3125 2.5625 10.3125 C-0.73464793 9.98278521 -2.0601839 9.6898161 -4.4375 7.3125 C-4.6875 4.8125 -4.6875 4.8125 -4.4375 2.3125 C-2.4375 0.3125 -2.4375 0.3125 0 0 Z " fill="#121210" transform="translate(234.4375,112.6875)"/>
<path d="M0 0 C6.15234375 -0.09765625 6.15234375 -0.09765625 8 0 C8.33 0.33 8.66 0.66 9 1 C8.71269945 3.33944736 8.38063221 5.6739143 8 8 C5.69 8.33 3.38 8.66 1 9 C-1 6 -1 6 -0.625 2.8125 C-0.41875 1.884375 -0.2125 0.95625 0 0 Z " fill="#161413" transform="translate(194,105)"/>
<path d="M0 0 C3 0.0625 3 0.0625 6 1 C7.5625 3.3125 7.5625 3.3125 8 6 C6.625 8.3125 6.625 8.3125 5 10 C0.25 9.125 0.25 9.125 -2 8 C-2.125 5.125 -2.125 5.125 -2 2 C-1.34 1.34 -0.68 0.68 0 0 Z " fill="#131111" transform="translate(217,103)"/>
<path d="M0 0 C-0.1875 1.875 -0.1875 1.875 -1 4 C-3.89111788 5.52164099 -5.71823412 6 -9 6 C-9.33 6.66 -9.66 7.32 -10 8 C-11.32 8 -12.64 8 -14 8 C-15.125 3.25 -15.125 3.25 -14 1 C-9.28474515 0.20080426 -4.78845757 -0.11971144 0 0 Z " fill="#949495" transform="translate(253,151)"/>
<path d="M0 0 C0.33 0.33 0.66 0.66 1 1 C0.71269945 3.33944736 0.38063221 5.6739143 0 8 C-5.41139241 8.36075949 -5.41139241 8.36075949 -7.9375 6.8125 C-9 5 -9 5 -8.6875 2.3125 C-8.460625 1.549375 -8.23375 0.78625 -8 0 C-4.69676014 -1.10107995 -3.29495231 -0.86709271 0 0 Z " fill="#141412" transform="translate(261,138)"/>
<path d="M0 0 C2.64 0 5.28 0 8 0 C8.25 6.625 8.25 6.625 6 10 C3.5625 9.625 3.5625 9.625 1 9 C-0.4783226 6.04335481 -0.06032783 3.25770263 0 0 Z " fill="#1D1C1A" transform="translate(194,150)"/>
<path d="M0 0 C3.625 0.375 3.625 0.375 7 1 C7.04254356 2.99954746 7.04080783 5.00041636 7 7 C6 8 6 8 2.5 8.125 C-1 8 -1 8 -2 7 C-2.1875 4.5625 -2.1875 4.5625 -2 2 C-1.34 1.34 -0.68 0.68 0 0 Z " fill="#23221C" transform="translate(182,118)"/>
<path d="M0 0 C2.35981813 0.93578995 4.69631264 1.93347808 7 3 C7 4.32 7 5.64 7 7 C0.375 8.25 0.375 8.25 -3 6 C-2.625 3.5625 -2.625 3.5625 -2 1 C-1.34 0.67 -0.68 0.34 0 0 Z " fill="#36342E" transform="translate(207,136)"/>
<path d="M0 0 C2.52730627 2.52730627 5.03573911 5.03940467 7.4375 7.6875 C10.22173072 10.20009845 12.39898343 11.07880972 16 12 C15.01 12.495 15.01 12.495 14 13 C14 13.66 14 14.32 14 15 C8.98972451 13.78538776 6.6736026 10.60643511 3.55078125 6.77734375 C2.10661042 4.89500097 2.10661042 4.89500097 0 4 C0 2.68 0 1.36 0 0 Z " fill="#575344" transform="translate(182,250)"/>
<path d="M0 0 C0.33 0 0.66 0 1 0 C0.51454933 6.43222143 0.51454933 6.43222143 -1.8125 9 C-4 10 -4 10 -6.25 9.6875 C-6.8275 9.460625 -7.405 9.23375 -8 9 C-8.33 7.02 -8.66 5.04 -9 3 C-8.67 3.66 -8.34 4.32 -8 5 C-6.02111039 5.72693904 -4.02045442 6.39816251 -2 7 C-1.855625 6.21625 -1.71125 5.4325 -1.5625 4.625 C-1 2 -1 2 0 0 Z " fill="#28261C" transform="translate(253,124)"/>
<path d="M0 0 C0.7425 0.391875 1.485 0.78375 2.25 1.1875 C1.92 2.8375 1.59 4.4875 1.25 6.1875 C0.26 5.8575 -0.73 5.5275 -1.75 5.1875 C-1.75 4.5275 -1.75 3.8675 -1.75 3.1875 C-4.71175123 3.80027612 -6.13058783 4.44122522 -8.75 6.1875 C-6.97538326 1.89884287 -4.96024066 -1.46552565 0 0 Z " fill="#2E2C26" transform="translate(206.75,119.8125)"/>
<path d="M0 0 C0 0.99 0 1.98 0 3 C-1.43344 3.53190541 -2.87195367 4.05015258 -4.3125 4.5625 C-5.51326172 4.99755859 -5.51326172 4.99755859 -6.73828125 5.44140625 C-9 6 -9 6 -12 5 C-9.82422399 1.73633599 -9.56538615 1.57932018 -6 0.8125 C-5.29875 0.65394531 -4.5975 0.49539063 -3.875 0.33203125 C-2 0 -2 0 0 0 Z " fill="#666152" transform="translate(235,265)"/>
<path d="M0 0 C1.2065625 0.0309375 1.2065625 0.0309375 2.4375 0.0625 C2.1075 2.0425 1.7775 4.0225 1.4375 6.0625 C0.1175 6.0625 -1.2025 6.0625 -2.5625 6.0625 C-2.94468767 4.40635343 -3.27645102 2.73792976 -3.5625 1.0625 C-2.5625 0.0625 -2.5625 0.0625 0 0 Z " fill="#3C3B3B" transform="translate(241.5625,152.9375)"/>
<path d="M0 0 C0.99 0.66 1.98 1.32 3 2 C3 2.99 3 3.98 3 5 C1.35 5.66 -0.3 6.32 -2 7 C-2.33 5.35 -2.66 3.7 -3 2 C-2.01 1.34 -1.02 0.68 0 0 Z " fill="#595959" transform="translate(207,136)"/>
<path d="M0 0 C0.66 0.33 1.32 0.66 2 1 C1.51421457 4.12290635 1.0013988 6.99580359 0 10 C-0.99 10 -1.98 10 -3 10 C-2.69201674 8.51988629 -2.378482 7.04092675 -2.0625 5.5625 C-1.88847656 4.73878906 -1.71445312 3.91507813 -1.53515625 3.06640625 C-1 1 -1 1 0 0 Z " fill="#33312C" transform="translate(263,225)"/>
<path d="M0 0 C4.62 0.66 9.24 1.32 14 2 C14 2.33 14 2.66 14 3 C12.41870971 3.22331199 10.83478911 3.42804644 9.25 3.625 C7.92742187 3.79902344 7.92742187 3.79902344 6.578125 3.9765625 C3.77140122 4.00207817 2.36615134 3.44843844 0 2 C0 1.34 0 0.68 0 0 Z " fill="#5A5747" transform="translate(199,265)"/>
<path d="M0 0 C0 3 0 3 -1.75 5.04296875 C-2.4925 5.75066406 -3.235 6.45835938 -4 7.1875 C-4.7425 7.90292969 -5.485 8.61835937 -6.25 9.35546875 C-7.11625 10.16951172 -7.11625 10.16951172 -8 11 C-8.66 10.67 -9.32 10.34 -10 10 C-8.90033225 8.70450101 -7.79508199 7.41373929 -6.6875 6.125 C-6.07261719 5.40570313 -5.45773438 4.68640625 -4.82421875 3.9453125 C-3 2 -3 2 0 0 Z " fill="#C1A962" transform="translate(185,100)"/>
<path d="M0 0 C1.1875 1.5625 1.1875 1.5625 2 4 C0.625 7.75 0.625 7.75 -1 11 C-1.33 11 -1.66 11 -2 11 C-2.25 3.375 -2.25 3.375 0 0 Z " fill="#5F5C52" transform="translate(260,235)"/>
<path d="M0 0 C0.33 0.66 0.66 1.32 1 2 C1.66 2 2.32 2 3 2 C3 2.66 3 3.32 3 4 C4.65 4 6.3 4 8 4 C7.01 5.485 7.01 5.485 6 7 C3.13275314 6.42655063 2.1385485 6.1385485 0 4 C0 2.68 0 1.36 0 0 Z " fill="#1E1C19" transform="translate(252,139)"/>
<path d="M0 0 C-1.98 1.32 -3.96 2.64 -6 4 C-6 3.34 -6 2.68 -6 2 C-7.32 2.33 -8.64 2.66 -10 3 C-9 1 -9 1 -6.6875 -0.1875 C-3.88010429 -1.03624754 -2.698065 -0.99928333 0 0 Z " fill="#EDD079" transform="translate(249,256)"/>
<path d="M0 0 C0.99 0.33 1.98 0.66 3 1 C3 2.65 3 4.3 3 6 C2.01 6 1.02 6 0 6 C0 4.02 0 2.04 0 0 Z " fill="#545655" transform="translate(181,152)"/>
<path d="M0 0 C0.99 0.33 1.98 0.66 3 1 C3 1.99 3 2.98 3 4 C2.34 4 1.68 4 1 4 C1 4.66 1 5.32 1 6 C0.34 6 -0.32 6 -1 6 C-1.042721 4.33388095 -1.04063832 2.66617115 -1 1 C-0.67 0.67 -0.34 0.34 0 0 Z " fill="#151513" transform="translate(181,119)"/>
<path d="" fill="#58585A" transform="translate(0,0)"/>
</svg>
